<svg xmlns="http://www.w3.org/2000/svg" width="45" height="45" viewBox="0 0 45 45">
  <path id="Caminho_4338" data-name="Caminho 4338" d="M65,41V4a4,4,0,0,1,4-4h37a4,4,0,0,1,4,4V41a4,4,0,0,1-4,4H69a4,4,0,0,1-4-4M74.03,9.969a10.466,10.466,0,0,0-2.2,6.438V28.592a10.3,10.3,0,0,0,2.7,6.975,10.328,10.328,0,0,0,6.875,2.6H93.591a10.283,10.283,0,0,0,7-2.733,10.333,10.333,0,0,0,2.573-6.844V16.408a10.434,10.434,0,0,0-2.274-6.529,10.206,10.206,0,0,0-7.3-3.048H81.408A10.183,10.183,0,0,0,74.03,9.969m7.239,25.3a7.253,7.253,0,0,1-4.88-1.87,7.353,7.353,0,0,1-1.655-4.669V16.268a7.342,7.342,0,0,1,1.683-4.7,7.272,7.272,0,0,1,4.851-1.84H93.731A7.307,7.307,0,0,1,98.5,11.494a7.31,7.31,0,0,1,1.762,4.775V28.73A7.31,7.31,0,0,1,98.5,33.505a7.3,7.3,0,0,1-4.773,1.761ZM79.379,22.5A8.12,8.12,0,1,0,87.5,14.38a8.119,8.119,0,0,0-8.121,8.12Zm14.546-8.381a1.911,1.911,0,1,0,1.911-1.911,1.912,1.912,0,0,0-1.911,1.911ZM82.29,22.5a5.21,5.21,0,1,1,5.21,5.21,5.211,5.211,0,0,1-5.21-5.21" transform="translate(-65)" fill="#818181"/>
</svg>
