<svg xmlns="http://www.w3.org/2000/svg" width="45" height="45" viewBox="0 0 45 45">
  <path id="Caminho_4340" data-name="Caminho 4340" d="M199,45H236a4,4,0,0,0,4-4V4a4,4,0,0,0-4-4H199a4,4,0,0,0-4,4V41a4,4,0,0,0,4,4m32.678-29.906a1.052,1.052,0,0,0-.442.956c-.161,7.633-3.308,13.641-9.815,17.75a18.523,18.523,0,0,1-8.714,2.682,20.112,20.112,0,0,1-12.147-2.9c-.069-.042-.136-.089-.3-.195a14.2,14.2,0,0,0,10.331-2.918,7.118,7.118,0,0,1-6.468-4.911c.5.023,1,.076,1.5.061a8.623,8.623,0,0,0,1.5-.208,7.568,7.568,0,0,1-3.986-2.56,7.1,7.1,0,0,1-1.557-4.49,7.274,7.274,0,0,0,3.177.85,7.148,7.148,0,0,1-2.937-4.32,7.014,7.014,0,0,1,.77-5.107,20.312,20.312,0,0,0,14.586,7.4c-.045-.537-.116-1.031-.123-1.527a7.061,7.061,0,0,1,6.929-7.19q.192,0,.384,0a6.888,6.888,0,0,1,4.715,2.019.507.507,0,0,0,.537.154A14.892,14.892,0,0,0,233.792,9a7.4,7.4,0,0,1-2.955,3.851,13.224,13.224,0,0,0,3.894-1.035,13.372,13.372,0,0,1-3.063,3.286" transform="translate(-195)" fill="#818181"/>
</svg>
