<svg xmlns="http://www.w3.org/2000/svg" width="45" height="45" viewBox="0 0 45 45">
  <path id="Caminho_4341" data-name="Caminho 4341" d="M264,45h37a4,4,0,0,0,4-4V4a4,4,0,0,0-4-4H264a4,4,0,0,0-4,4V41a4,4,0,0,0,4,4M276.11,30.858a8.358,8.358,0,1,1,8.358-8.358,8.358,8.358,0,0,1-8.358,8.358h0m13.311-.5c-2.29,0-4.146-3.516-4.146-7.854s1.857-7.854,4.146-7.854,4.146,3.516,4.146,7.854-1.856,7.854-4.146,7.854m6.36-.934c-.809,0-1.465-3.1-1.465-6.92s.656-6.92,1.465-6.92,1.465,3.1,1.465,6.92-.656,6.92-1.465,6.92" transform="translate(-259.999)" fill="#818181"/>
</svg>
