<svg xmlns="http://www.w3.org/2000/svg" width="45" height="45" viewBox="0 0 45 45">
  <path id="Caminho_4339" data-name="Caminho 4339" d="M134,45h37a4,4,0,0,0,4-4V4a4,4,0,0,0-4-4H134a4,4,0,0,0-4,4V41a4,4,0,0,0,4,4m9.729-27.528V37.51c0,.115-.007.229-.01.344h-6.839c-.01-.135-.028-.27-.028-.4v-20.3h6.878Zm-2.451-3.282a4.1,4.1,0,0,1-3.68-.838,3.343,3.343,0,0,1-1.1-1.956,2,2,0,0,0-.061-.2v-.941a4.132,4.132,0,0,1,.666-1.633,3.879,3.879,0,0,1,3.363-1.472,3.637,3.637,0,0,1,2.966,1.371,3.53,3.53,0,0,1-2.159,5.673m27.285,23.664h-6.839a3.166,3.166,0,0,1-.049-.4c0-3.512.013-7.024-.014-10.536a11.306,11.306,0,0,0-.269-2.355,2.99,2.99,0,0,0-1.813-2.252,3.723,3.723,0,0,0-4.148,1,4.292,4.292,0,0,0-1,3.011c.022,3.711.009,7.421.006,11.132a3.163,3.163,0,0,1-.049.4h-6.839q.019-8.1.036-16.209c0-1.38-.021-2.759-.032-4.139v-.361h6.876v2.777l.06.02c.071-.095.145-.187.212-.284a6.735,6.735,0,0,1,5.747-3.017,7.826,7.826,0,0,1,4.826,1.367,7.652,7.652,0,0,1,2.91,4.58,14.042,14.042,0,0,1,.383,3.448V37.86" transform="translate(-130)" fill="#818181"/>
</svg>
