<svg xmlns="http://www.w3.org/2000/svg" width="72.072" height="51.48" viewBox="0 0 72.072 51.48">
  <g id="Grupo_3240" data-name="Grupo 3240" transform="translate(23512 12818.478)">
    <path id="Caminho_4207" data-name="Caminho 4207" d="M72.069,14.873h-.012v-.017a2.39,2.39,0,0,0-2.443-2.333H2.443A2.389,2.389,0,0,0,0,14.856V61.668A2.39,2.39,0,0,0,2.443,64H69.617a2.39,2.39,0,0,0,2.443-2.333v-.017h.012Z" transform="translate(-23512 -12831)" fill="#151515"/>
    <path id="Caminho_4214" data-name="Caminho 4214" d="M273.744,195.628c-.132-.027-4.188.019-4.314,0a.785.785,0,0,0-.837.729c0,.017,0,.034,0,.051v4.372a.781.781,0,0,0,.781.781c.071.015,4.2-.012,4.272,0a.793.793,0,0,0,.876-.7.763.763,0,0,0,0-.081v-4.373a.781.781,0,0,0-.781-.779" transform="translate(-23716.727 -12970.559)" fill="#09c623"/>
    <g id="Grupo_3237" data-name="Grupo 3237" transform="translate(-23509.725 -12816.481)">
      <path id="Caminho_4208" data-name="Caminho 4208" d="M29.122,42.517H18.87a1.624,1.624,0,0,1-1.62-1.62V22.548a1.624,1.624,0,0,1,1.62-1.619H29.122a1.083,1.083,0,0,1,1.08,1.079v3.778a1.082,1.082,0,0,1-1.08,1.078H21.032a1.624,1.624,0,0,0-1.62,1.619V38.738a1.624,1.624,0,0,0,1.62,1.619h8.089a1.08,1.08,0,1,1,.007,2.159h-.007Z" transform="translate(-15.429 -20.928)" fill="#f2f2f2"/>
      <path id="Caminho_4209" data-name="Caminho 4209" d="M91.535,42.777H81.848a1.624,1.624,0,0,1-1.62-1.62v-18.3a1.6,1.6,0,0,1,1.6-1.592h9.7a1.578,1.578,0,0,1,1.592,1.564c0,.009,0,.019,0,.028v18.3a1.6,1.6,0,0,1-1.576,1.62h-.016m-.54-17.756a1.624,1.624,0,0,0-1.62-1.619H84.006a1.624,1.624,0,0,0-1.62,1.619V35.249a1.624,1.624,0,0,0,1.62,1.619h5.369a1.624,1.624,0,0,0,1.62-1.619Z" transform="translate(-63.421 -21.188)" fill="#f2f2f2"/>
      <path id="Caminho_4210" data-name="Caminho 4210" d="M154.282,42.517H142.948V20.929h11.334a1.624,1.624,0,0,1,1.619,1.619V40.9a1.624,1.624,0,0,1-1.619,1.62m-.54-17.81a1.624,1.624,0,0,0-1.619-1.619h-7.016V36.581h7.016a1.624,1.624,0,0,0,1.619-1.619Z" transform="translate(-111.22 -20.928)" fill="#f2f2f2"/>
      <path id="Caminho_4211" data-name="Caminho 4211" d="M217.781,42.515H207.528a1.624,1.624,0,0,1-1.62-1.62V22.546a1.624,1.624,0,0,1,1.62-1.619h10.253a1.08,1.08,0,0,1,.065,2.158h-4.383a1.624,1.624,0,0,0-1.619,1.619v3.777a1.624,1.624,0,0,0,1.619,1.62h4.317a1.08,1.08,0,0,1,.065,2.158h-8.155a1.624,1.624,0,0,0-1.619,1.619v4.858a1.623,1.623,0,0,0,1.619,1.619h8.089a1.08,1.08,0,0,1,0,2.159Z" transform="translate(-159.202 -20.927)" fill="#f2f2f2"/>
      <path id="Caminho_4212" data-name="Caminho 4212" d="M91.535,151.551H81.848a1.624,1.624,0,0,1-1.62-1.62v-18.3a1.6,1.6,0,0,1,1.6-1.592h9.7a1.578,1.578,0,0,1,1.592,1.564c0,.009,0,.019,0,.028v18.3a1.6,1.6,0,0,1-1.573,1.623h-.019m-.54-17.756a1.624,1.624,0,0,0-1.619-1.619h-5.37a1.624,1.624,0,0,0-1.62,1.619v10.228a1.624,1.624,0,0,0,1.62,1.619h5.37a1.624,1.624,0,0,0,1.619-1.619Z" transform="translate(-63.421 -104.069)" fill="#f2f2f2"/>
      <path id="Caminho_4213" data-name="Caminho 4213" d="M217.869,151.664H207.641a1.624,1.624,0,0,1-1.619-1.62V131.235a1.08,1.08,0,0,1,2.158,0v12.871a1.624,1.624,0,0,0,1.619,1.619h8.069a1.082,1.082,0,0,1,1.079,1.08v3.777a1.083,1.083,0,0,1-1.078,1.082" transform="translate(-159.289 -104.181)" fill="#f2f2f2"/>
      <path id="Caminho_4215" data-name="Caminho 4215" d="M155.9,131.078a1.078,1.078,0,0,0-1.076-1.03,1.059,1.059,0,0,0-1.077,1.039s0,.008,0,.012v12.923a1.624,1.624,0,0,1-1.619,1.619h-5.372a1.624,1.624,0,0,1-1.619-1.619V131.1a.544.544,0,0,0-.025-.15,1.079,1.079,0,0,0-2.134.311v18.676a1.624,1.624,0,0,0,1.62,1.62h9.687a1.624,1.624,0,0,0,1.619-1.62V131.1a.141.141,0,0,1,0-.022" transform="translate(-111.234 -104.073)" fill="#f2f2f2"/>
      <path id="Caminho_4216" data-name="Caminho 4216" d="M28.6,151.551H18.317a1.08,1.08,0,1,1-.007-2.159h4.352a1.6,1.6,0,0,0,1.619-1.577v-4.9a1.6,1.6,0,0,0-1.6-1.592h-.015l-.85-.027a1.6,1.6,0,0,1-1.619-1.577c0-.005,0-.011,0-.016v-8.074a1.6,1.6,0,0,1,1.6-1.592h4.719a1.059,1.059,0,0,1,1.079,1.039s0,.008,0,.012a1.083,1.083,0,0,1-1.08,1.08H23.943a1.624,1.624,0,0,0-1.619,1.619v3.75a1.624,1.624,0,0,0,1.619,1.62H28.6a1.6,1.6,0,0,1,1.593,1.6c0,.005,0,.011,0,.016v9.148a1.6,1.6,0,0,1-1.573,1.623H28.6" transform="translate(-15.417 -104.069)" fill="#f2f2f2"/>
      <path id="Caminho_4217" data-name="Caminho 4217" d="M9.677,132.944h3.616a.1.1,0,0,0,.1-.093v-2.238a.392.392,0,0,0-.368-.411H9.952a.392.392,0,0,0-.368.411v2.238a.1.1,0,0,0,.093.093m.458-.61v-1.3a.209.209,0,0,1,.175-.228h1.717a.21.21,0,0,1,.176.228v1.3Z" transform="translate(-9.583 -104.218)" fill="#f2f2f2"/>
      <path id="Caminho_4218" data-name="Caminho 4218" d="M13.017,165.632H12.57a.36.36,0,0,0-.371.347v.2a.074.074,0,0,1-.039.063.088.088,0,0,1-.085,0L11.668,166v-.978c0-.071.044-.121.084-.121h1.3a.326.326,0,0,0,.335-.275.289.289,0,0,0-.081-.232.339.339,0,0,0-.243-.1H9.944a.3.3,0,0,0-.064.007.353.353,0,0,0-.3.341v.7a.069.069,0,0,0,0,.017.3.3,0,0,0,.152.242l3.149,1.825a.365.365,0,0,0,.181.048.337.337,0,0,0,.247-.1.294.294,0,0,0,.07-.131.082.082,0,0,0,.009-.039v-1.219a.36.36,0,0,0-.362-.357h-.008m-1.9-.5v.549l-.93-.538c-.048-.03-.048-.03-.048-.078v-.04c0-.071.044-.121.084-.121h.719a.207.207,0,0,1,.17.234Z" transform="translate(-9.58 -130.208)" fill="#f2f2f2"/>
      <path id="Caminho_4219" data-name="Caminho 4219" d="M10.257,148.611l2.86-.469a.4.4,0,0,0,.3-.4v-.96a.389.389,0,0,0-.364-.411H9.9a.307.307,0,0,0,0,.61h2.207a.128.128,0,0,1,.124.122v.469c0,.05-.032.108-.124.121l-2.164.363a.4.4,0,0,0-.32.406v.655a.393.393,0,0,0,.367.411H13.14a.307.307,0,0,0,0-.61H10.261c-.046,0-.084-.054-.084-.122v-.058a.119.119,0,0,1,.08-.123" transform="translate(-9.612 -116.539)" fill="#f2f2f2"/>
    </g>
  </g>
</svg>
