<svg xmlns="http://www.w3.org/2000/svg" width="198" height="208" viewBox="0 0 198 208">
  <g id="Grupo_3336" data-name="Grupo 3336" transform="translate(-412 -3066)">
    <g id="Grupo_3271" data-name="Grupo 3271" opacity="0.6">
      <rect id="Retângulo_698" data-name="Retângulo 698" width="117" height="117" transform="translate(442 3096)" fill="#09c623"/>
      <g id="Retângulo_699" data-name="Retângulo 699" transform="translate(460 3120)" fill="none" stroke="#151515" stroke-width="2" stroke-dasharray="8 6">
        <rect width="107" height="107" stroke="none"/>
        <rect x="1" y="1" width="105" height="105" fill="none"/>
      </g>
      <rect id="Retângulo_119" data-name="Retângulo 119" width="45" height="51" transform="translate(478 3133)" fill="#9dfc00"/>
      <rect id="Retângulo_120" data-name="Retângulo 120" width="46" height="51" transform="translate(534 3133)" fill="#9dfc00"/>
      <rect id="Retângulo_121" data-name="Retângulo 121" width="45" height="51" transform="translate(478 3193)" fill="#9dfc00"/>
      <rect id="Retângulo_122" data-name="Retângulo 122" width="46" height="51" transform="translate(534 3193)" fill="#9dfc00"/>
    </g>
    <g id="Grupo_3277" data-name="Grupo 3277" transform="translate(-664 -857.787)">
      <rect id="Retângulo_118" data-name="Retângulo 118" width="117" height="117" transform="translate(1106 3953.787)" fill="#09c623"/>
      <g id="Retângulo_137" data-name="Retângulo 137" transform="translate(1124 3977.787)" fill="none" stroke="#151515" stroke-width="2" stroke-dasharray="8 6">
        <rect width="107" height="107" stroke="none"/>
        <rect x="1" y="1" width="105" height="105" fill="none"/>
      </g>
      <g id="Grupo_1460" data-name="Grupo 1460" transform="translate(1141.755 3990.947)">
        <rect id="Retângulo_119-2" data-name="Retângulo 119" width="45" height="51" transform="translate(0.244 -0.16)" fill="#9dfc00"/>
        <rect id="Retângulo_120-2" data-name="Retângulo 120" width="46" height="51" transform="translate(56.244 -0.16)" fill="#9dfc00"/>
        <rect id="Retângulo_121-2" data-name="Retângulo 121" width="45" height="51" transform="translate(0.244 59.84)" fill="#9dfc00"/>
        <rect id="Retângulo_122-2" data-name="Retângulo 122" width="46" height="51" transform="translate(56.244 59.84)" fill="#9dfc00"/>
      </g>
    </g>
  </g>
</svg>
