<svg xmlns="http://www.w3.org/2000/svg" width="134.946" height="96.39" viewBox="0 0 134.946 96.39">
  <g id="Grupo_3346" data-name="Grupo 3346" transform="translate(-175.141 -510.791)">
    <path id="Caminho_4008" data-name="Caminho 4008" d="M310.087,515.19h-.022l0-.031a4.475,4.475,0,0,0-4.574-4.368H179.715a4.474,4.474,0,0,0-4.574,4.368v.031h0v87.591h0v.031a4.475,4.475,0,0,0,4.574,4.369l.033,0v0H305.494a4.476,4.476,0,0,0,4.574-4.369l0-.031h.022Z" transform="translate(0)" fill="#151515"/>
    <g id="Grupo_2521" data-name="Grupo 2521" transform="translate(179.4 514.53)">
      <g id="Grupo_2519" data-name="Grupo 2519" transform="translate(3.418)">
        <path id="Caminho_4009" data-name="Caminho 4009" d="M203.773,554.367H184.549a3.045,3.045,0,0,1-3.036-3.036v-34.4a3.044,3.044,0,0,1,3.036-3.035h19.224a2.029,2.029,0,0,1,2.024,2.023V523a2.03,2.03,0,0,1-2.024,2.023H188.6a3.045,3.045,0,0,0-3.036,3.035v19.225a3.044,3.044,0,0,0,3.036,3.035h15.177a2.024,2.024,0,0,1,0,4.048Z" transform="translate(-181.513 -513.894)" fill="#f2f2f2"/>
        <path id="Caminho_4010" data-name="Caminho 4010" d="M225.973,554.341H207.81a3.045,3.045,0,0,1-3.036-3.036V517a3,3,0,0,1,3.036-2.984h18.162A2.958,2.958,0,0,1,228.957,517v34.3A3,3,0,0,1,225.973,554.341Zm-1.012-33.289a3.044,3.044,0,0,0-3.036-3.035H211.857a3.044,3.044,0,0,0-3.036,3.035v19.174a3.045,3.045,0,0,0,3.036,3.035h10.067a3.045,3.045,0,0,0,3.036-3.035Z" transform="translate(-176.747 -513.868)" fill="#f2f2f2"/>
        <path id="Caminho_4011" data-name="Caminho 4011" d="M249.2,554.367H227.951V513.894H249.2a3.044,3.044,0,0,1,3.035,3.035v34.4A3.045,3.045,0,0,1,249.2,554.367Zm-1.012-33.391a3.044,3.044,0,0,0-3.035-3.035H232v25.3h13.154a3.045,3.045,0,0,0,3.035-3.035Z" transform="translate(-171.999 -513.894)" fill="#f2f2f2"/>
        <path id="Caminho_4012" data-name="Caminho 4012" d="M273.472,554.367H254.248a3.045,3.045,0,0,1-3.036-3.036v-34.4a3.044,3.044,0,0,1,3.036-3.035h19.224a2.024,2.024,0,1,1,0,4.047h-8.094a3.044,3.044,0,0,0-3.035,3.035v7.082a3.045,3.045,0,0,0,3.035,3.036h8.094a2.024,2.024,0,1,1,0,4.047H258.3a3.044,3.044,0,0,0-3.035,3.035v9.107a3.043,3.043,0,0,0,3.035,3.035h15.177a2.024,2.024,0,0,1,0,4.048Z" transform="translate(-167.234 -513.894)" fill="#f2f2f2"/>
      </g>
      <path id="Caminho_4013" data-name="Caminho 4013" d="M225.973,594.53H207.81a3.045,3.045,0,0,1-3.036-3.036v-34.3a3,3,0,0,1,3.036-2.984h18.162a2.958,2.958,0,0,1,2.984,2.984v34.3A3,3,0,0,1,225.973,594.53Zm-1.012-33.289a3.044,3.044,0,0,0-3.035-3.035H211.857a3.044,3.044,0,0,0-3.036,3.035v19.174a3.045,3.045,0,0,0,3.036,3.035h10.068a3.045,3.045,0,0,0,3.035-3.035Z" transform="translate(-173.329 -505.635)" fill="#f2f2f2"/>
      <path id="Caminho_4014" data-name="Caminho 4014" d="M273.464,594.53H254.29a3.045,3.045,0,0,1-3.035-3.036V556.232a2.024,2.024,0,0,1,4.047,0v24.132a3.045,3.045,0,0,0,3.035,3.035h15.127a2.03,2.03,0,0,1,2.023,2.024v7.082A2.03,2.03,0,0,1,273.464,594.53Z" transform="translate(-163.807 -505.635)" fill="#f2f2f2"/>
      <path id="Caminho_4015" data-name="Caminho 4015" d="M284.033,578.449c-.247-.051-7.851.036-8.09,0a1.472,1.472,0,0,0-1.572,1.463v8.2a1.464,1.464,0,0,0,1.464,1.464c.133.029,7.879-.022,8.01,0a1.488,1.488,0,0,0,1.652-1.464v-8.2A1.464,1.464,0,0,0,284.033,578.449Z" transform="translate(-159.071 -500.672)" fill="#09c623"/>
      <path id="Caminho_4016" data-name="Caminho 4016" d="M252.2,556.14a2.021,2.021,0,0,0-2.018-1.93h0a1.986,1.986,0,0,0-2.021,1.972v24.234a3.045,3.045,0,0,1-3.035,3.035H235.058a3.044,3.044,0,0,1-3.035-3.035V556.183a1.017,1.017,0,0,0-.047-.281,2.022,2.022,0,0,0-4,.585v35.009a3.045,3.045,0,0,0,3.036,3.036h18.162a3.045,3.045,0,0,0,3.035-3.036V556.183C252.209,556.168,252.205,556.155,252.2,556.14Z" transform="translate(-168.58 -505.636)" fill="#f2f2f2"/>
      <path id="Caminho_4017" data-name="Caminho 4017" d="M202.812,594.53H183.537a2.024,2.024,0,1,1,0-4.048h8.145a3,3,0,0,0,3.035-2.984V578.34a3,3,0,0,0-3.035-2.985l-1.594-.051a3,3,0,0,1-3.035-2.986V557.193a3,3,0,0,1,3.035-2.984h8.82a1.986,1.986,0,0,1,2.024,1.972,2.03,2.03,0,0,1-2.024,2.024h-4.823a3.044,3.044,0,0,0-3.035,3.035v7.031a3.045,3.045,0,0,0,3.035,3.036h8.727a3,3,0,0,1,2.986,3.035v17.15A3,3,0,0,1,202.812,594.53Z" transform="translate(-178.095 -505.635)" fill="#f2f2f2"/>
      <g id="Grupo_2520" data-name="Grupo 2520" transform="translate(0 48.641)">
        <path id="Caminho_4018" data-name="Caminho 4018" d="M178.857,559.405h6.78a.178.178,0,0,0,.181-.174v-4.2a.734.734,0,0,0-.689-.771h-5.763a.735.735,0,0,0-.689.771v4.2A.178.178,0,0,0,178.857,559.405Zm.859-1.145v-2.425a.392.392,0,0,1,.328-.427h3.219a.393.393,0,0,1,.329.427v2.425Z" transform="translate(-178.676 -554.264)" fill="#f2f2f2"/>
        <path id="Caminho_4019" data-name="Caminho 4019" d="M185.124,569.362h-.836a.674.674,0,0,0-.694.649v.376a.138.138,0,0,1-.073.118.166.166,0,0,1-.159,0l-.765-.443v-1.833c0-.134.083-.227.158-.227h2.434a.612.612,0,0,0,.626-.516.542.542,0,0,0-.152-.435.635.635,0,0,0-.455-.192l-.028.005a.26.26,0,0,0-.052-.006h-5.763a.579.579,0,0,0-.119.013.661.661,0,0,0-.57.639v1.3a.136.136,0,0,0,0,.033.555.555,0,0,0,.286.453l5.9,3.421a.685.685,0,0,0,.339.089.632.632,0,0,0,.463-.192.55.55,0,0,0,.131-.246.148.148,0,0,0,.017-.072v-2.287A.673.673,0,0,0,185.124,569.362Zm-3.566-.935v1.03l-1.743-1.009c-.089-.055-.09-.057-.09-.146v-.075c0-.134.083-.227.158-.227h1.348A.388.388,0,0,1,181.558,568.427Z" transform="translate(-178.676 -551.684)" fill="#f2f2f2"/>
        <path id="Caminho_4020" data-name="Caminho 4020" d="M179.886,564.446l5.362-.879a.743.743,0,0,0,.565-.759v-1.8a.727.727,0,0,0-.689-.772h-5.906a.575.575,0,0,0,0,1.145h4.138a.24.24,0,0,1,.233.228v.879c0,.093-.06.2-.233.227l-4.057.682a.741.741,0,0,0-.6.76v1.229a.735.735,0,0,0,.688.772h5.907a.575.575,0,0,0,0-1.145h-5.4c-.087,0-.158-.1-.158-.228v-.11A.223.223,0,0,1,179.886,564.446Z" transform="translate(-178.671 -553.04)" fill="#f2f2f2"/>
      </g>
    </g>
  </g>
</svg>
