<svg xmlns="http://www.w3.org/2000/svg" width="72.071" height="51.48" viewBox="0 0 72.071 51.48">
  <g id="Grupo_2911" data-name="Grupo 2911" transform="translate(-175.141 -510.791)">
    <path id="Caminho_4008" data-name="Caminho 4008" d="M247.212,513.14H247.2v-.017a2.39,2.39,0,0,0-2.443-2.333H177.584a2.389,2.389,0,0,0-2.443,2.333v.017h0v46.78h0v.017a2.39,2.39,0,0,0,2.443,2.333h67.176a2.39,2.39,0,0,0,2.443-2.333v-.017h.012Z" transform="translate(0 0)" fill="#151515"/>
    <g id="Grupo_2521" data-name="Grupo 2521" transform="translate(177.416 512.788)">
      <g id="Grupo_2519" data-name="Grupo 2519" transform="translate(1.826)">
        <path id="Caminho_4009" data-name="Caminho 4009" d="M193.4,535.51H183.135a1.626,1.626,0,0,1-1.622-1.622V515.515a1.626,1.626,0,0,1,1.622-1.621H193.4a1.084,1.084,0,0,1,1.081,1.08v3.783a1.084,1.084,0,0,1-1.081,1.08H185.3a1.626,1.626,0,0,0-1.622,1.621v10.268a1.626,1.626,0,0,0,1.622,1.621H193.4a1.081,1.081,0,1,1,0,2.162Z" transform="translate(-181.513 -513.894)" fill="#f2f2f2"/>
        <path id="Caminho_4010" data-name="Caminho 4010" d="M216.1,535.555h-9.7a1.626,1.626,0,0,1-1.622-1.622V515.614a1.6,1.6,0,0,1,1.622-1.594h9.7a1.58,1.58,0,0,1,1.594,1.594v18.319A1.6,1.6,0,0,1,216.1,535.555Zm-.541-17.779a1.626,1.626,0,0,0-1.622-1.621h-5.376a1.626,1.626,0,0,0-1.622,1.621v10.241a1.626,1.626,0,0,0,1.622,1.621h5.376a1.626,1.626,0,0,0,1.622-1.621Z" transform="translate(-189.806 -513.939)" fill="#f2f2f2"/>
        <path id="Caminho_4011" data-name="Caminho 4011" d="M239.3,535.51H227.951V513.894H239.3a1.626,1.626,0,0,1,1.621,1.621v18.373A1.626,1.626,0,0,1,239.3,535.51Zm-.541-17.833a1.626,1.626,0,0,0-1.621-1.621h-7.025v13.51h7.025a1.626,1.626,0,0,0,1.621-1.621Z" transform="translate(-198.068 -513.894)" fill="#f2f2f2"/>
        <path id="Caminho_4012" data-name="Caminho 4012" d="M263.1,535.51H252.834a1.626,1.626,0,0,1-1.622-1.622V515.515a1.626,1.626,0,0,1,1.622-1.621H263.1a1.081,1.081,0,1,1,0,2.161h-4.323a1.626,1.626,0,0,0-1.621,1.621v3.782a1.626,1.626,0,0,0,1.621,1.622H263.1a1.081,1.081,0,1,1,0,2.161H255a1.626,1.626,0,0,0-1.621,1.621v4.864A1.625,1.625,0,0,0,255,533.347H263.1a1.081,1.081,0,0,1,0,2.162Z" transform="translate(-206.361 -513.894)" fill="#f2f2f2"/>
      </g>
      <path id="Caminho_4013" data-name="Caminho 4013" d="M216.1,575.744h-9.7a1.626,1.626,0,0,1-1.622-1.622V555.8a1.6,1.6,0,0,1,1.622-1.594h9.7a1.58,1.58,0,0,1,1.594,1.594v18.319A1.6,1.6,0,0,1,216.1,575.744Zm-.541-17.779a1.626,1.626,0,0,0-1.621-1.621h-5.377a1.626,1.626,0,0,0-1.622,1.621v10.241a1.626,1.626,0,0,0,1.622,1.621h5.377a1.626,1.626,0,0,0,1.621-1.621Z" transform="translate(-187.98 -528.266)" fill="#f2f2f2"/>
      <path id="Caminho_4014" data-name="Caminho 4014" d="M263.117,575.744H252.876a1.626,1.626,0,0,1-1.621-1.622V555.289a1.081,1.081,0,0,1,2.161,0v12.888a1.626,1.626,0,0,0,1.621,1.621h8.079a1.084,1.084,0,0,1,1.08,1.081v3.782A1.084,1.084,0,0,1,263.117,575.744Z" transform="translate(-204.551 -528.266)" fill="#f2f2f2"/>
      <path id="Caminho_4015" data-name="Caminho 4015" d="M279.531,578.441c-.132-.027-4.193.019-4.32,0a.786.786,0,0,0-.84.781V583.6a.782.782,0,0,0,.782.782c.071.015,4.208-.012,4.278,0a.794.794,0,0,0,.882-.782v-4.379A.782.782,0,0,0,279.531,578.441Z" transform="translate(-212.792 -536.902)" fill="#09c623"/>
      <path id="Caminho_4016" data-name="Caminho 4016" d="M240.907,555.238a1.079,1.079,0,0,0-1.078-1.031h0a1.06,1.06,0,0,0-1.079,1.053V568.2a1.626,1.626,0,0,1-1.621,1.621H231.75a1.626,1.626,0,0,1-1.621-1.621V555.26a.543.543,0,0,0-.025-.15,1.08,1.08,0,0,0-2.137.312v18.7a1.626,1.626,0,0,0,1.622,1.622h9.7a1.626,1.626,0,0,0,1.621-1.622V555.26C240.909,555.253,240.907,555.245,240.907,555.238Z" transform="translate(-196.245 -528.264)" fill="#f2f2f2"/>
      <path id="Caminho_4017" data-name="Caminho 4017" d="M192.888,575.744H182.594a1.081,1.081,0,1,1,0-2.162h4.35a1.6,1.6,0,0,0,1.621-1.594V567.1a1.6,1.6,0,0,0-1.621-1.594l-.851-.027a1.6,1.6,0,0,1-1.621-1.595V555.8a1.6,1.6,0,0,1,1.621-1.594h4.71a1.061,1.061,0,0,1,1.081,1.053,1.084,1.084,0,0,1-1.081,1.081h-2.576a1.626,1.626,0,0,0-1.621,1.621v3.755a1.626,1.626,0,0,0,1.621,1.622h4.661a1.6,1.6,0,0,1,1.595,1.621v9.16A1.6,1.6,0,0,1,192.888,575.744Z" transform="translate(-179.687 -528.266)" fill="#f2f2f2"/>
      <g id="Grupo_2520" data-name="Grupo 2520" transform="translate(0 25.978)">
        <path id="Caminho_4018" data-name="Caminho 4018" d="M178.773,557.01h3.621a.1.1,0,0,0,.1-.093v-2.241a.392.392,0,0,0-.368-.412h-3.078a.392.392,0,0,0-.368.412v2.241A.1.1,0,0,0,178.773,557.01Zm.459-.611v-1.3a.209.209,0,0,1,.175-.228h1.719a.21.21,0,0,1,.176.228v1.3Z" transform="translate(-178.676 -554.264)" fill="#f2f2f2"/>
        <path id="Caminho_4019" data-name="Caminho 4019" d="M182.12,568.194h-.447a.36.36,0,0,0-.371.347v.2a.074.074,0,0,1-.039.063.089.089,0,0,1-.085,0l-.409-.237v-.979c0-.071.044-.121.084-.121h1.3a.327.327,0,0,0,.335-.275.29.29,0,0,0-.081-.232.339.339,0,0,0-.243-.1l-.015,0a.135.135,0,0,0-.028,0h-3.078a.3.3,0,0,0-.064.007.353.353,0,0,0-.3.341v.7a.072.072,0,0,0,0,.017.3.3,0,0,0,.152.242l3.153,1.827a.365.365,0,0,0,.181.048.337.337,0,0,0,.247-.1.293.293,0,0,0,.07-.131.079.079,0,0,0,.009-.039v-1.221A.36.36,0,0,0,182.12,568.194Zm-1.9-.5v.55l-.931-.539c-.048-.03-.048-.03-.048-.078v-.04c0-.071.044-.121.084-.121h.72A.207.207,0,0,1,180.215,567.7Z" transform="translate(-178.676 -558.753)" fill="#f2f2f2"/>
        <path id="Caminho_4020" data-name="Caminho 4020" d="M179.332,562.484l2.864-.47a.4.4,0,0,0,.3-.405v-.961a.389.389,0,0,0-.368-.412h-3.154a.307.307,0,0,0,0,.611h2.21a.128.128,0,0,1,.124.122v.47c0,.05-.032.108-.124.121l-2.167.364a.4.4,0,0,0-.32.406v.656a.393.393,0,0,0,.367.412h3.155a.307.307,0,0,0,0-.611h-2.883c-.046,0-.084-.054-.084-.122v-.058A.119.119,0,0,1,179.332,562.484Z" transform="translate(-178.684 -556.393)" fill="#f2f2f2"/>
      </g>
    </g>
  </g>
</svg>
