<svg xmlns="http://www.w3.org/2000/svg" xmlns:xlink="http://www.w3.org/1999/xlink" width="143" height="75" viewBox="0 0 143 75">
  <defs>
    <clipPath id="clip-path">
      <rect id="Ret창ngulo_747" data-name="Ret창ngulo 747" width="132.119" height="21.96" transform="translate(0 0)" fill="none"/>
    </clipPath>
  </defs>
  <g id="Grupo_3322" data-name="Grupo 3322" transform="translate(0.041 0.266)">
    <rect id="Ret창ngulo_746" data-name="Ret창ngulo 746" width="143" height="75" transform="translate(-0.041 -0.266)" fill="none"/>
    <g id="Grupo_3321" data-name="Grupo 3321" transform="translate(5.42 26.249)">
      <g id="Grupo_3320" data-name="Grupo 3320" transform="translate(0 0)" clip-path="url(#clip-path)">
        <path id="Caminho_4246" data-name="Caminho 4246" d="M462.834,40.249a2,2,0,0,1-1.751-1.76c-.084-.641-.133-1.286-.217-1.928-.1-.788-.193-1.577-.286-2.366-.1-.845-.195-1.691-.3-2.536s-.187-1.669-.285-2.5c-.091-.766-.169-1.534-.26-2.3-.01-.086.019-.227-.072-.243-.118-.021-.142.127-.182.214-.417.915-.885,1.8-1.329,2.706-.643,1.3-1.267,2.616-1.941,3.9-.337.643-.642,1.3-.957,1.957-.677,1.407-1.39,2.8-2.088,4.194a1.314,1.314,0,0,1-.568.7c-.015.007-.019.027-.023.044.046,0,.091.006.136.006h10.148c.051,0,.1,0,.153-.005-.028-.1-.117-.069-.182-.081" transform="translate(-366.925 -21.575)" fill="#ee551b"/>
        <path id="Caminho_4247" data-name="Caminho 4247" d="M59.06,92.824h0Z" transform="translate(-47.879 -75.256)" fill="#ee551b"/>
        <path id="Caminho_4248" data-name="Caminho 4248" d="M52.315,4.1l0-.293c-.039-.1.014-.217-.032-.321l-.036-.093a.857.857,0,0,1-.019-.285c-.015-.463-.166-.9-.209-1.364-.01-.106.016-.242-.088-.332-.067-.036-.066-.1-.059-.16-.011-.176-.077-.344-.084-.522A.166.166,0,0,0,51.7.59L51.695.583l0-.011c-.03-.059.008-.129-.031-.186C51.651.357,51.618.338,51.629.3c-.024-.1-.02-.212-.145-.251l-.012.005-.01-.008c-.044-.026-.09-.033-.117.017a.153.153,0,0,0,.007.177.563.563,0,0,1,.1.242c.047.148.008.317.113.449.016.039,0,.088.038.12.033.058-.013.131.037.185l0,0c.037.065-.014.145.034.209l0,0a1.738,1.738,0,0,0,.1.445l0,0c.037.066-.008.143.03.208,0,.02,0,.041,0,.061.043.1-.016.214.034.315l.007.009-.005.01a14.131,14.131,0,0,1,0,3.711l.006.009-.006.008c-.051.1.006.218-.034.322l.006.01-.007.009a1.023,1.023,0,0,0-.037.273l-.01.034a.238.238,0,0,0-.065.168c-.014.137-.04.271-.061.407-.068.093-.025.22-.1.311-.056.167-.055.345-.106.513h0a1.26,1.26,0,0,0-.171.509l-.107.275a.941.941,0,0,0-.051.14c-.033.092-.024.206-.116.273-.049.035,0,.093-.031.132a2.3,2.3,0,0,0-.206.475l-.074.106a.85.85,0,0,1-.063.166l-.065.173a.622.622,0,0,0-.1.175l0,0,0,0h0c-.036.047-.036.111-.072.159a.013.013,0,0,1-.019.012c-.115.1-.108.252-.185.367l-.041.072a.445.445,0,0,0-.127.241h0v0h0c-.022.045-.089.049-.1.106v0c-.059.1-.117.2-.179.3l-.068.107c-.056.025-.076.079-.1.128-.136.186-.269.375-.4.564-.074.109-.21.181-.224.33a.287.287,0,0,0-.2.24h0a.154.154,0,0,0-.132.141l0,0,0,0h0c-.043.049-.091.093-.137.14-.065.058-.1.149-.176.193v0a.237.237,0,0,0-.1.138l-.04.033c-.072.063-.163.109-.194.21h0l0,0h0a.452.452,0,0,0-.175.163l-.1.1a.455.455,0,0,0-.138.133c-.075.085-.2.12-.237.242a.668.668,0,0,0-.206.172l-.075.066c-.1.042-.149.143-.232.206l-.04.033c-.04.033-.106.026-.126.087-.009.112-.146.072-.181.152-.058.039-.133.057-.164.13l-.052.079a.138.138,0,0,0-.154.129l0,0c-.052.032-.123.019-.167.07l-.044.033c-.119.144-.316.187-.434.333l-.121.081a.787.787,0,0,0-.186.1.341.341,0,0,1-.189.138c-.085.013-.1.121-.186.136l-.052.035a.473.473,0,0,0-.288.2l-.108.039c-.038.059-.116.033-.162.076l0,0a.534.534,0,0,1-.212.135c-.03.05-.092.035-.132.066-.034.075-.11.081-.175.106-.065.1-.2.079-.277.167-.076.038-.156.069-.234.1l-.041.033c-.037.031-.1.027-.122.075h0l0,0,0,0c-.069.034-.139.068-.21.1l0,0c-.068.026-.147.021-.205.074l0,0c-.056.067-.145.081-.212.13l-.1.037a5.32,5.32,0,0,1-.484.234l-.137.07c-.09.071-.215.069-.3.144l0,0a.522.522,0,0,0-.291.2.9.9,0,0,0,.376.011,1.618,1.618,0,0,0,.864-.081l.057-.066a1.989,1.989,0,0,0,.419-.167l.051-.038a.9.9,0,0,1,.186-.1l0,0c.058-.022.129-.014.175-.068l.009-.007.01.005a2.81,2.81,0,0,1,.42-.218c0-.093.109-.021.124-.088a.71.71,0,0,0,.318-.144l.095-.06a3.132,3.132,0,0,0,.313-.139,3.334,3.334,0,0,1,.414-.228c.064-.047.1-.132.189-.144.123.019.157-.115.247-.146.223-.078.377-.273.6-.345.038-.012.03-.058.055-.081h0c.055-.061.15-.046.2-.107l.19-.17a.214.214,0,0,0,.181-.143.026.026,0,0,1,.033-.026.667.667,0,0,0,.346-.239l.092-.069a.67.67,0,0,0,.174-.138h0l0,0,0,0c.066-.039.15-.055.172-.145q0-.018.014-.02c.044-.049.111-.061.16-.1a.358.358,0,0,1,.165-.173.944.944,0,0,0,.273-.242h0l0,0,0,0c.089-.028.161-.072.171-.177l.1-.06c.1-.024.081-.159.178-.185v-.011l.01,0c.061-.052.135-.092.161-.176a.027.027,0,0,1,.028-.032c.073-.045.166-.07.175-.178a.09.09,0,0,1,.056-.063.168.168,0,0,0,.115-.139L49,13.98c.064-.046.136-.085.145-.177l.095-.062c.084-.03.084-.112.109-.178l.023-.027a.2.2,0,0,0,.147-.179c.109-.055.11-.194.2-.261.088-.005.092-.075.106-.136h0v0h0c.035-.045.072-.088.1-.134a5.243,5.243,0,0,1,.369-.581c.1-.033.086-.141.139-.206l0,0,0,0h0a1.107,1.107,0,0,0,.2-.384l.061-.059c.061-.046.051-.121.075-.182a.163.163,0,0,1,.066-.124c.06-.009.052-.066.072-.1v0l0,0h0c.06-.071.073-.168.135-.237a1.306,1.306,0,0,1,.206-.454c-.007-.056-.019-.113.027-.161.087-.056.042-.173.111-.237h0c.082-.034.032-.12.067-.172l0,0a4.012,4.012,0,0,0,.206-.587c-.013-.067-.011-.128.058-.166.1-.12.078-.272.112-.409l0,0c.048-.053,0-.125.036-.18-.027-.077.039-.111.073-.16a.169.169,0,0,0,.045-.09,6.84,6.84,0,0,1,.108-.681c.029-.15.076-.294.094-.45a2.129,2.129,0,0,1,.088-.633l-.005-.01.007-.009c.049-.092-.005-.2.034-.289l0-.393c.043-.138-.01-.282.03-.42q0-.365,0-.73c-.043-.206.015-.417-.031-.622" transform="translate(-33.258 -0.02)" fill="#ee551b"/>
        <path id="Caminho_4249" data-name="Caminho 4249" d="M94,57.726l0,0h0Z" transform="translate(-76.21 -46.801)" fill="#ee551b"/>
        <path id="Caminho_4250" data-name="Caminho 4250" d="M126.614,14.816a1.406,1.406,0,0,1-.072-.4c-.037-.078.018-.182-.07-.245l0,0c-.03-.067-.012-.153-.081-.2a.6.6,0,0,1-.056-.267,1.882,1.882,0,0,0-.15-.381l-.09-.227c-.045-.092-.021-.21-.11-.285-.043-.049-.017-.136-.093-.167-.032-.079,0-.18-.083-.242l-.088-.164c-.045-.105-.041-.232-.136-.316a.109.109,0,0,1-.069-.128c-.032-.092-.044-.2-.149-.243-.016-.092-.1-.16-.091-.26-.046-.1-.14-.176-.17-.288l0,0c-.018-.06-.038-.117-.107-.138-.043-.107-.143-.184-.166-.3a.84.84,0,0,0-.115-.208l-.057-.057a.613.613,0,0,0-.212-.352.045.045,0,0,1-.027-.056c-.026-.049-.032-.109-.078-.148l-.059-.055a1.058,1.058,0,0,0-.136-.219h0a.194.194,0,0,1-.08-.125.246.246,0,0,0-.154-.185A.338.338,0,0,1,123.847,9c-.026-.075-.119-.1-.136-.181-.11-.113-.15-.278-.283-.373l-.226-.306c-.038-.064-.062-.138-.134-.177h0c-.066-.069-.069-.179-.155-.234-.026,0-.046,0-.053-.029-.032-.044-.03-.108-.081-.142l-.056-.058a.854.854,0,0,1-.111-.147c-.023-.062-.109-.065-.126-.134-.032-.049-.045-.111-.1-.142-.089-.035-.093-.129-.137-.2a2.582,2.582,0,0,1-.2-.248.579.579,0,0,1-.107-.1h0l0,0,0,0c-.017-.039-.026-.083-.07-.1l0,0c-.112-.05-.1-.225-.239-.245a.028.028,0,0,1-.031-.033c-.043-.182-.22-.262-.311-.408l0,0a.638.638,0,0,1-.1-.105v0l0,0h0a.115.115,0,0,0-.112-.1.764.764,0,0,0-.23-.266.207.207,0,0,0-.141-.178l-.029-.028a3.247,3.247,0,0,0-.309-.348c-.019,0-.031-.009-.031-.03-.047-.08-.077-.175-.179-.207l-.026-.03a.662.662,0,0,0-.211-.242l0,0c-.066-.05-.1-.134-.168-.179a.1.1,0,0,1-.068-.061c-.055-.033-.048-.117-.116-.139-.138-.047-.172-.206-.294-.27-.034-.114-.134-.17-.215-.243l-.024-.03a.15.15,0,0,0-.144-.141c-.074-.018-.056-.1-.107-.143-.357-.294-.639-.663-.973-.979-.278-.262-.547-.532-.812-.808-.2-.211-.419-.41-.622-.622-.029-.065-.091-.082-.15-.1l-.227-.23a.345.345,0,0,0-.168-.183h0c-.05-.078-.21-.125-.264-.072s-.014.076.031.1h0l0,0,0,0c.064.05.069.153.161.177l.074.072a.432.432,0,0,1,.138.133l.1.1a.33.33,0,0,1,.106.1v0a.262.262,0,0,0,.168.14c.01.081.045.14.136.146.078.046.066.168.166.2l.107.075a.278.278,0,0,0,.095.129l.077.073c.082.029.106.115.165.165.111.1.176.238.311.311.029.107.121.15.207.2h0c.03.049.042.112.1.138l.1.075a.417.417,0,0,0,.17.2.461.461,0,0,0,.171.177,1.308,1.308,0,0,1,.2.232c.037.03.082.046.108.094a1.01,1.01,0,0,0,.335.35c.082.027.022.143.106.17a.284.284,0,0,1,.167.173c.038.076.129.1.172.168l.032.069c.107.051.145.17.235.238l.1.111c.016.037.03.076.071.094l.1.1c.015.083.092.114.141.17l.03.029c.028.115.157.143.207.24v0c0,.062.048.085.1.105l.037.042c.052.068.084.153.165.2l.039.042a.628.628,0,0,0,.179.224v0l0,0h0c.027.093.122.132.166.211l.068.091c.039.077.133.1.17.18l0,0a1.292,1.292,0,0,0,.1.14l.065.066c.106.083.129.229.239.308l.068.073a.97.97,0,0,0,.173.234l.032.039c.02.055.027.12.1.131l.34.442c.048.048.05.125.106.169l0,0c.119.093.14.264.274.345l.1.171c.016.06.069.092.106.136l.167.242c.041.035.043.09.069.133l.135.147c.031.039.018.094.059.133a2.365,2.365,0,0,1,.32.47l.065.144c.121.046.091.212.206.262h0a1.126,1.126,0,0,0,.208.343l.029.074c.047.063.029.168.128.2.062.085.058.2.145.275.042.035.042.093.072.134.033.086.047.182.133.238.037.039.032.1.071.137a.257.257,0,0,0,.1.174c.027.069.031.149.1.2l.043.13c.1.15.128.339.241.484l.03.07a3.172,3.172,0,0,0,.1.3c.115.047.046.174.106.245s.01.218.133.269l0,0c.047.047-.006.117.038.164h0v0c.039.052-.012.124.037.174a.145.145,0,0,0,.063.1.96.96,0,0,1,.054.158,2.571,2.571,0,0,0,.126.517l0,0a.6.6,0,0,0,.061.178.019.019,0,0,1,0,.027c.036.055-.007.123.032.177a.014.014,0,0,1,0,.023c.034.057-.008.126.032.182a.086.086,0,0,1,0,.086,3.686,3.686,0,0,0,.083.412,10.934,10.934,0,0,1,.034,1.477,1.392,1.392,0,0,1-.084.482l0,0c-.054.07.009.16-.039.232s0,.166-.034.244c-.042.039-.012.1-.032.14a.027.027,0,0,1,0,.031,1.66,1.66,0,0,0-.1.311l0,0c-.051.045,0,.117-.04.164l-.069.21c-.02.1.007.164.115.151.2-.024.406.01.609,0,.089,0,.142-.034.149-.141s.029-.222.044-.332c-.021-.129.073-.235.073-.361.05-.062.016-.147.058-.211l0,0,0-.005v0a.068.068,0,0,0,.025-.036,4.386,4.386,0,0,0,.1-.9,8.926,8.926,0,0,0-.026-1.1,3.228,3.228,0,0,0-.155-.853" transform="translate(-93.685 0)" fill="#ee551b"/>
        <path id="Caminho_4251" data-name="Caminho 4251" d="M158.651,46.6v0h0Z" transform="translate(-128.625 -37.777)" fill="#ee551b"/>
        <path id="Caminho_4252" data-name="Caminho 4252" d="M106.608,87.664c-.332.031-.665,0-1,.015a.509.509,0,0,0-.309.05l-.447.51c-.08.045-.114.13-.166.2l-.043.04c-.048.027-.107.043-.123.107l0,0,0,0h0c-.036.054-.1.079-.141.125a.32.32,0,0,0-.136.108c-.09.128-.25.176-.341.3-.139.07-.218.219-.363.281-.087.114-.239.157-.314.285V89.7l-.009.006c-.087.1,0,.115.069.116s.168-.014.253-.015c.328,0,.655.03.983.018.068,0,.141.008.184-.058.065-.1.176-.156.248-.249l.028-.022c.073-.019.08-.111.148-.135l.094-.067c.071-.111.218-.148.271-.277h0l0,0v0a2.853,2.853,0,0,0,.415-.377l.061-.1c.082-.072.189-.124.21-.247l.022-.027c.084-.009.1-.074.116-.14a.089.089,0,0,1,.062-.063c.125-.054.139-.19.21-.284.018-.038.088-.068.016-.118" transform="translate(-83.655 -71.073)" fill="#ee551b"/>
        <path id="Caminho_4253" data-name="Caminho 4253" d="M123.384,58.455a4.959,4.959,0,0,1-.611.019.169.169,0,0,0-.143.077c-.006.15.055.306-.032.451-.065.409-.076.823-.134,1.233l0,0c-.055.043,0,.115-.042.161l-.037.11c-.075.148-.061.318-.121.471-.05.127-.025.158.118.158.243,0,.487.009.731-.007s.233-.012.26-.219l0,0a8.634,8.634,0,0,0,.149-1.239,6.015,6.015,0,0,0,.014-1.069c-.008-.11-.043-.156-.152-.146" transform="translate(-99.108 -47.391)" fill="#ee551b"/>
        <path id="Caminho_4254" data-name="Caminho 4254" d="M123.286,39.892c-.031-.1-.033-.248-.165-.264a1.043,1.043,0,0,0-.468.025c-.04.014-.081.018-.075.069a1.057,1.057,0,0,0,.12.562h0c.056.319.067.644.115.965.012.08.028.127.116.127.169,0,.339,0,.508,0,.067,0,.134-.03.121-.109a6.024,6.024,0,0,0-.124-.771.2.2,0,0,1-.059-.133c-.038-.053.012-.125-.037-.176l0,0a1.956,1.956,0,0,0-.055-.3" transform="translate(-99.379 -32.117)" fill="#ee551b"/>
        <path id="Caminho_4255" data-name="Caminho 4255" d="M119.83,27.936c-.019-.053-.061-.1-.044-.162a.86.86,0,0,0-.145-.313l-.06-.2a2.017,2.017,0,0,1-.1-.286c-.023-.063-.049-.116-.125-.116-.107,0-.214-.006-.321,0-.051,0-.095.014-.088.074.016.136,0,.283.125.386a.546.546,0,0,0,.066.241,3.665,3.665,0,0,0,.169.509.568.568,0,0,0,.364,0c.059-.035.2.032.156-.131" transform="translate(-96.438 -21.775)" fill="#ee551b"/>
        <path id="Caminho_4256" data-name="Caminho 4256" d="M115.345,17.481c-.172-.005-.172,0-.141.185a.38.38,0,0,0,.1.179,1.448,1.448,0,0,0,.173.4h0c.021.065.022.142.1.171h0c.072.043.135-.021.206-.019.148,0,.16-.022.128-.181l0,0c-.038-.083-.036-.188-.128-.243a.6.6,0,0,1-.11-.261c-.022-.067-.025-.143-.1-.181h0c-.062-.09-.156-.047-.235-.049" transform="translate(-93.388 -14.166)" fill="#ee551b"/>
        <path id="Caminho_4257" data-name="Caminho 4257" d="M111.438,10.236h0l0,0,0,0c.015.049.057.076.092.107l.108.276c.021.054.022.124.1.133.032.038,0,.125.088.118s.2.033.291-.028c.023-.016.02-.062-.011-.088-.03-.008-.035-.03-.032-.056-.094-.115-.115-.271-.212-.386l-.06-.063a.248.248,0,0,0-.377-.068c-.017.017-.008.038.01.054" transform="translate(-90.332 -8.207)" fill="#ee551b"/>
        <path id="Caminho_4258" data-name="Caminho 4258" d="M108.67,5.068a1.081,1.081,0,0,1,.059.118c.066.126.189.07.282.062s.058-.086.029-.144a.249.249,0,0,0-.145-.133c-.033-.025-.023-.062-.025-.1a.219.219,0,0,0-.254-.165c-.12.011-.129.034-.053.153,0,.085.066.139.106.2" transform="translate(-87.978 -3.818)" fill="#ee551b"/>
        <path id="Caminho_4259" data-name="Caminho 4259" d="M111.293,6.793h0l0,0Z" transform="translate(-90.23 -5.507)" fill="#ee551b"/>
        <path id="Caminho_4260" data-name="Caminho 4260" d="M105.743.331l0,0a.316.316,0,0,1,.1.138.17.17,0,0,0,.26.014c.068-.065-.007-.115-.075-.141s-.062-.078-.055-.133A.156.156,0,0,0,105.858.1c-.04-.119-.131-.111-.21-.063s0,.11.019.164.028.1.074.131" transform="translate(-85.623 -0.003)" fill="#ee551b"/>
        <path id="Caminho_4261" data-name="Caminho 4261" d="M106.832,2.444l0,0h0Z" transform="translate(-86.612 -1.979)" fill="#ee551b"/>
        <path id="Caminho_4262" data-name="Caminho 4262" d="M134.075,6.065c-.036-.041-.109-.033-.129-.1a.122.122,0,0,0-.1-.112.081.081,0,0,1-.066-.067.158.158,0,0,0-.145-.135l-.4-.364c-.012-.076-.078-.092-.135-.116a.074.074,0,0,1-.067-.064c-.044-.088-.136-.119-.209-.173l-.062-.038a.293.293,0,0,0-.212-.166c-.037-.015-.08-.022-.1-.066,0-.065-.05-.09-.1-.105a.284.284,0,0,1-.132-.076c-.071-.053-.1-.162-.21-.162l-.1-.062a.156.156,0,0,0-.105-.1l0,0,0,0h0c-.034-.05-.092-.054-.143-.07-.049.007-.073-.024-.093-.062-.017-.074-.088-.079-.138-.111a.279.279,0,0,1-.233-.114c-.025-.079-.1-.1-.163-.128a.246.246,0,0,1-.147-.1v0c-.026-.07-.1-.043-.144-.067a.427.427,0,0,1-.229-.113c-.078-.142-.243-.12-.358-.193a.145.145,0,0,1-.123-.061c-.058-.115-.188-.092-.278-.145a.2.2,0,0,1-.2-.093c-.064-.081-.167-.076-.251-.111a.2.2,0,0,1-.158-.094c-.084-.094-.2-.087-.313-.111-.092.021-.154-.044-.227-.077-.014-.029-.018-.073-.057-.074-.118,0-.217-.074-.331-.087a.3.3,0,0,1-.229-.065c-.03-.107-.132-.08-.2-.108h0c-.053-.043-.123,0-.177-.034l-.339-.091c-.011-.081-.076-.092-.137-.1a3.053,3.053,0,0,1-.469-.089h0a.164.164,0,0,0-.125-.079c-.285-.027-.558-.114-.841-.154-.025,0-.049,0-.062-.024a.123.123,0,0,0-.115-.058c-.256-.016-.509-.068-.766-.075a2.82,2.82,0,0,0-.4-.033c-.035,0-.083-.013-.083.05.1.054.154.162.249.214a6.05,6.05,0,0,1,.638.52,7.3,7.3,0,0,1,.677.557c.193.181.411.336.612.51a8.885,8.885,0,0,1,.686.618c.089.03.119.129.2.172l.144.1c.042.049.055.131.143.128l0,0,0,0h0a1.477,1.477,0,0,0,.193.177c.048.059.135.07.174.139.015.09.1.1.16.134.1.1.171.228.32.264.054-.016.05-.058.049-.1,0-.091-.1-.1-.13-.16a.556.556,0,0,1-.167-.241.031.031,0,0,0-.033-.032l-.031-.029a.318.318,0,0,0-.115-.14l-.054-.067c-.014-.041-.014-.093-.072-.1l0,0c-.1-.067-.112-.213-.244-.243l-.093-.075c-.051-.053-.057-.144-.143-.165a.025.025,0,0,1-.03-.028.449.449,0,0,0-.244-.21.078.078,0,0,1-.063-.1c-.038-.066-.12-.064-.17-.111a.09.09,0,0,1-.1-.058c-.024-.115-.117-.147-.212-.178l-.1-.058a.076.076,0,0,0-.068-.076l0,0,0,0h0c-.033-.046-.087-.051-.135-.069h0l0,0h0a.374.374,0,0,1-.123-.165,5.4,5.4,0,0,1,.868.16c.076.053.168,0,.247.037.115.042.235.074.347.126l0,0,0,0h0c.058.058.14,0,.2.041h0c.081.034.178.009.254.066a.088.088,0,0,1,.086,0,1.532,1.532,0,0,0,.335.138l.245.07c.184.006.318.162.5.169l.282.071c.028.029.069.038.1.065a.374.374,0,0,0,.209.107.537.537,0,0,1,.182.059l.056.007c.033.073.107.076.17.1l.1.036a3.308,3.308,0,0,1,.374.2l.24.071a3.985,3.985,0,0,0,.574.337c.058.059.157.034.21.1a.382.382,0,0,0,.2.137c.215.078.365.27.585.34.022.059.078.077.127.1l.145.074a.159.159,0,0,0,.142.124l0,0,0,0h0c.027.046.085.042.12.075a3.671,3.671,0,0,1,.379.3c.076.078.2.1.245.2a2.2,2.2,0,0,0,.2.14l.037.041c.019.051.066.07.108.1l.034.005a.054.054,0,0,0,.07,0c-.019-.061,0-.14-.086-.167" transform="translate(-100.753 -1.17)" fill="#252d44" fill-rule="evenodd"/>
        <path id="Caminho_4263" data-name="Caminho 4263" d="M74.886,45.144h0Z" transform="translate(-60.713 -36.6)" fill="#111841" fill-rule="evenodd"/>
        <path id="Caminho_4264" data-name="Caminho 4264" d="M17.879,6.111l0,.005c-.026-.088-.1-.056-.157-.059-.265-.011-.53.018-.795-.016l0,0c-.056-.041-.12-.02-.18-.019A3.707,3.707,0,0,1,16,5.974c-.056,0-.111.01-.167.01-.331,0-.331,0-.221-.314,0,0,.008-.007.013-.011.129-.037.122-.152.146-.25-.006-.07.068-.079.095-.124a.767.767,0,0,0,.113-.272l.1-.1c.035-.024.059-.053.042-.1,0-.038.034-.05.055-.072.089-.028.087-.112.111-.18-.005-.048.027-.071.063-.091.077-.018.094-.08.108-.145l.028-.025c.041-.124.152-.2.212-.312l.009-.058c.053-.026.114-.044.127-.115l.021-.027a.134.134,0,0,0,.115-.11l.056-.06a1.291,1.291,0,0,1,.117-.138.1.1,0,0,1,.064-.064.269.269,0,0,0,.14-.142l.157-.1c.088,0,.037-.1.085-.127a.176.176,0,0,0,.134-.2c-.036-.055.007-.123-.032-.177a.285.285,0,0,1-.037-.2.6.6,0,0,1-.048-.158,3.409,3.409,0,0,0-.136-.562.05.05,0,0,1-.023-.056c-.029-.1-.015-.228-.137-.287-.063,0-.115.06-.182.035a4.755,4.755,0,0,0-.514.053,1.489,1.489,0,0,0-.49.083l-.087.037c-.278.052-.56.086-.833.164l-.031.009c-.051.009-.11,0-.137.062h0c-.175.025-.347.069-.523.088a.207.207,0,0,0-.162.077c-.093,0-.155.1-.256.076a2.026,2.026,0,0,0-.628.2l0,0c-.051.041-.124-.015-.171.04l0,0a2.143,2.143,0,0,0-.382.125c-.031.067-.106.045-.153.078-.081.034-.172.034-.251.075l0,0c-.068.037-.164.008-.213.09-.033.055-.1.041-.146.073a.881.881,0,0,0-.3.1c-.054.079-.156.056-.223.107a.618.618,0,0,0-.356.161.249.249,0,0,1-.166.074.665.665,0,0,0-.311.135.413.413,0,0,1-.191.106.869.869,0,0,0-.212.075l0,0a.289.289,0,0,1-.146.093l-.052.042c-.072.012-.149.015-.187.094l-.188.109c-.061.024-.136.013-.181.074l0,0a.6.6,0,0,1-.181.127.251.251,0,0,1-.135.072c-.054.031-.12.028-.172.064a1.6,1.6,0,0,1-.507.345.139.139,0,0,0-.107.094l-.26.146c-.054.006-.065.051-.082.091l-.076.041c-.047.037-.112.037-.16.073l0,0a.131.131,0,0,0-.106.091l-.159.114c-.076.024-.116.1-.182.135l-.036.032c-.043.027-.1.031-.135.069a.753.753,0,0,1-.244.2c-.091,0-.115.085-.164.136l-.087.073c-.083,0-.082.107-.151.128L6.6,6.039c-.037.041-.1.051-.13.1-.04.112-.178.116-.233.21-.061.043-.116.094-.176.139l-.038.031a.14.14,0,0,0-.1.1l-.07.07a.476.476,0,0,0-.169.167l-.108.072c-.046.033-.056.092-.1.129l-.146.11a.9.9,0,0,0-.126.13l-.074.074a.149.149,0,0,0-.1.093l-.169.179a.782.782,0,0,1-.133.144l0,0,0,0h0c-.084.029-.1.107-.136.178-.068.041-.157.058-.175.156-.058.048-.124.089-.132.174l0,0,0,0h0c-.037.052-.1.074-.141.125l-.068.109c-.022.046-.076.058-.1.1l-.036.038a.941.941,0,0,1-.169.2L3.746,8.9c-.035.065-.1.111-.131.175h0l0,0v0c-.076.014-.04.092-.075.129l-.086.074c-.083.039-.053.147-.12.2l0,0a1.105,1.105,0,0,0-.263.348l0,0,0,0h0c-.047.026-.043.085-.075.121s-.093.05-.1.112c-.041.022-.044.071-.073.1l-.167.238a.348.348,0,0,1-.1.185l-.071.122c-.023.046-.079.058-.1.1-.042.024-.017.069-.031.1-.041.034-.043.091-.072.132a.014.014,0,0,1-.022.008c-.045.034-.038.1-.08.133l-.106.238c-.114.023-.062.153-.133.2l-.052.075c-.081.059-.074.16-.113.24l0,0a.752.752,0,0,1-.108.207.022.022,0,0,1-.008.029c-.07.061-.057.157-.1.231l-.1.144a3.485,3.485,0,0,1-.135.336.148.148,0,0,0-.065.141,1.678,1.678,0,0,1-.139.3l-.072.248a.473.473,0,0,0-.06.142l0,0c-.048.03-.045.089-.075.129l-.072.311c-.142.131-.118.318-.163.482l0,0,0,0h0a.428.428,0,0,0-.1.274l0,0,0,0v0c-.051.042,0,.112-.04.156l-.1.384a2.784,2.784,0,0,0-.13.652l0,0c-.027.06-.04.126-.069.185,0,.017,0,.034,0,.051A.245.245,0,0,0,.2,16.46q-.056.418-.1.839c-.075.064.036.161-.039.226A4.773,4.773,0,0,0,0,18.286q0,.093,0,.186c.031.065.061.068.091,0l.075-.5a4.475,4.475,0,0,0,.167-.655c0-.035-.013-.072.021-.1.08-.041.028-.114.043-.171v0c.048-.077.025-.185.106-.249a.768.768,0,0,1,.079-.4,1.3,1.3,0,0,0,.161-.446h0l0,0h0c.152-.152.143-.363.206-.548-.007-.026-.01-.052.021-.067.109-.048.06-.17.114-.243a.239.239,0,0,1,.063-.2c.136-.09.127-.259.211-.379-.005-.027,0-.053.027-.064a1.709,1.709,0,0,1,.129-.288c.021-.037.049-.089.1-.035.076.08.182.081.275.118.124.026.209.126.323.171a.9.9,0,0,0,.177.067l0,0,0,0h0a.766.766,0,0,0,.263.142c.146.048.312.056.412.2.128.04.262.055.388.1l.056.037a.6.6,0,0,0,.231.1l.076.032a2.153,2.153,0,0,0,.245.065l0,0,0,0h0a.662.662,0,0,0,.294.142l.28.073c.1.127.245.127.381.161l0,0c.043.054.115,0,.16.041.027.043.08,0,.11.034.055.089.155.071.235.1.063.043.159-.011.208.071.2,0,.351.156.547.167h0c.048.045.117-.007.165.037.045.059.145-.025.178.067a3.137,3.137,0,0,0,.409.137c0,.011,0,.023,0,.034a10.956,10.956,0,0,0-.052,1.281c0,.087-.06.182.03.259.094-.039.03-.121.048-.18h0v0h0c.1-.089.028-.217.071-.319a.081.081,0,0,1,0-.085c.044-.067,0-.148.032-.217a1.854,1.854,0,0,1,.055-.5c.058-.033.049-.1.062-.149.022-.08.061-.083.123-.05h0c.149.121.343.076.509.134.1.052.218,0,.311.07.054.035.121,0,.175.029v0l0,0h0c.045.079.126.076.2.089.125.02.251.032.376.049h0c.092.049.2,0,.289.035.066.052.151.01.221.042a.291.291,0,0,0,.2.08c.306.046.612.093.921.12l.042.035c.059.03.105.022.133-.043,0-.021.011-.031.032-.028.046-.024.1-.024.137-.073l0,0,0,0h0a.455.455,0,0,0,.174-.13c.039-.034.073-.069-.012-.083-.064-.011-.132.014-.2-.016h0a3.047,3.047,0,0,0-.691-.169.212.212,0,0,1-.195-.028,6.289,6.289,0,0,0-.718-.175l0,0c-.053-.051-.126,0-.182-.037a.508.508,0,0,1-.226-.042c-.076-.054-.175-.044-.252-.094a.049.049,0,0,1-.059-.021c-.044-.069-.121-.01-.174-.044l0,0c-.082-.05-.191-.012-.269-.078h0c-.079-.107-.207-.063-.309-.1h0c-.052-.044-.122,0-.175-.034a1.229,1.229,0,0,1-.178-.035c-.1-.034-.164-.092-.09-.206a2,2,0,0,0,.168-.651v0a5.732,5.732,0,0,0,.2-.828l.055-.062a1.532,1.532,0,0,0,.08-.343l0,0c.042-.084.031-.183.077-.266h0c.06-.031.035-.1.059-.143v0h0c.075-.1.055-.243.138-.343,0-.057-.027-.119.028-.167a4.047,4.047,0,0,0,.177-.446.515.515,0,0,1,.073-.232c.025-.064.069-.119.1-.182a.792.792,0,0,1,.092-.334.272.272,0,0,0,.113-.214.445.445,0,0,1,.111-.224c.072-.064.148-.018.2.017a.839.839,0,0,0,.262.086c.04.046.1.013.145.034.365.1.718.233,1.09.306h0c.054.09.153.025.222.064a.82.82,0,0,0,.256.04,2.317,2.317,0,0,0,.476.1.171.171,0,0,0,.138.071c.087.04.184-.014.27.031s.186-.01.274.031a.7.7,0,0,0,.273.055,1.077,1.077,0,0,1,.42.08c.046.042.1.03.158.035.051.038.109.017.164.018.177,0,.192.015.161.183-.034.187-.059.375-.083.564,0,.109,0,.219-.005.329-.043.067.007.146-.03.214l-.006.093c-.009.3-.058.6-.048.91a2.593,2.593,0,0,1-.015.44c-.007.05-.012.1-.016.152s-.02.1.046.108.041-.052.056-.083c.056-.113.01-.237.044-.351l.037-.153c.042-.069,0-.15.032-.219,0-.075,0-.149,0-.224a.1.1,0,0,0,.015-.03c.071-.379.05-.771.153-1.146l-.005-.009.007-.007c.046-.089-.008-.188.032-.278v0a1.062,1.062,0,0,0,.063-.362c.016-.084.026-.1.109-.084.182.03.363.064.545.095.264.045.529,0,.791.044h0c.078.049.17,0,.249.035a1.5,1.5,0,0,1,.351,0c.1-.032.082-.131.114-.2h0c.134-.03.1-.172.168-.248,0-.079.081-.1.109-.16a.675.675,0,0,0-.446-.1l-.034-.008a1.6,1.6,0,0,0-.468-.091c-.322-.038-.646-.059-.967-.1l-.337-.074c-.027-.182.108-.333.1-.513l0,0c.055-.074-.005-.167.038-.243a1.025,1.025,0,0,1,.121-.441c.074-.056.008-.143.045-.207l0,0,0,0h0c.055-.058-.007-.139.039-.2a6.53,6.53,0,0,0,.2-.766.383.383,0,0,0,.074-.187c.085-.137.061-.307.131-.448L14.6,8.25c.069-.041,0-.12.047-.169v0a1.188,1.188,0,0,0,.1-.353c.092-.092.075-.224.123-.332a.415.415,0,0,0,.117-.243.563.563,0,0,1,.073-.23c.036-.062.109-.1.117-.183.009-.1.076-.125.168-.119.735.045,1.47.069,2.206.063.3,0,.3,0,.332-.279l0,0a.4.4,0,0,0,0-.3m-7.1-1.524c.4-.147.753-.377,1.151-.524a1.816,1.816,0,0,1,.31-.145c-.05.178-.2.253-.3.367-.141.167-.323.3-.459.478a.218.218,0,0,1-.277.084c-.132-.045-.272-.068-.406-.109-.037-.011-.1-.019-.1-.075s.046-.064.081-.077M8.053,10.706c-.062.239-.177.46-.243.7-.02.074-.058.155-.077.234-.085.359-.192.712-.284,1.069-.138.533-.237,1.071-.338,1.612-.06.32-.1.64-.146.961-.006.048-.013.093-.093.083a1.581,1.581,0,0,1-.375-.111.972.972,0,0,0-.211-.089c-.262-.076-.508-.193-.766-.28-.42-.141-.823-.33-1.238-.489-.292-.112-.568-.269-.859-.392s-.6-.28-.886-.43c-.229-.119-.46-.239-.688-.362-.12-.065-.058-.15-.01-.212a5.949,5.949,0,0,0,.336-.577c.057-.095.126-.183.184-.277a11.56,11.56,0,0,1,.72-1.06c.32-.411.637-.825.983-1.217a8.46,8.46,0,0,0,.625-.724c.061-.086.161-.146.233-.232.086-.1.18-.039.234.044a.939.939,0,0,0,.327.274c.308.179.571.421.9.576.267.124.518.29.793.411A7.991,7.991,0,0,0,8,10.582c.067.021.065.071.051.124m.8-1.977a.976.976,0,0,0-.074.188c-.075.257-.231.477-.326.726-.042.109-.143.031-.187,0a4.537,4.537,0,0,0-.625-.3,6.212,6.212,0,0,1-.749-.389c-.141-.091-.291-.167-.437-.25a5.045,5.045,0,0,1-.681-.449c-.106-.085-.023-.151.034-.205.225-.216.464-.418.7-.616.307-.254.618-.506.946-.738.261-.185.52-.379.778-.571a3.054,3.054,0,0,1,.488-.32,6.114,6.114,0,0,0,.6-.388,1.044,1.044,0,0,0,.21-.137.257.257,0,0,1,.345-.008,1.144,1.144,0,0,0,.469.171c.136.024.229.135.364.15a.038.038,0,0,1,.033.047,1.3,1.3,0,0,1-.1.157,8.45,8.45,0,0,0-.613.863c-.155.246-.337.478-.468.737-.093.183-.2.36-.289.545-.13.269-.285.525-.427.788m5.534-2.3c-.09.364-.214.716-.33,1.072-.03.091-.042.188-.068.28-.111.4-.176.8-.27,1.2-.108.453-.171.913-.275,1.366-.045.2-.055.4-.109.6-.026.1-.061.107-.15.1-.373-.03-.719-.185-1.09-.221a7.9,7.9,0,0,1-1.208-.289,10.137,10.137,0,0,1-.987-.308c-.213-.08-.436-.139-.65-.223-.1-.039-.113-.072-.058-.156.168-.258.294-.54.444-.808s.312-.512.456-.775a7.794,7.794,0,0,1,.509-.733.24.24,0,0,0,.093-.111,5.95,5.95,0,0,1,.555-.728c.183-.229.368-.455.572-.666a.172.172,0,0,1,.175-.062c.34.058.687.085,1.02.172a8.027,8.027,0,0,0,1.3.182c.081.008.092.043.075.112m.8-1.921c-.128.282-.264.56-.369.852-.031.086-.1.158-.124.251-.02.069-.086.04-.132.033a3.443,3.443,0,0,1-.739-.135,2.33,2.33,0,0,0-.6-.1,2.281,2.281,0,0,1-.648-.176c.314-.256.6-.527.918-.771s.649-.493.984-.725a4.382,4.382,0,0,0,.478-.28c.186-.17.447-.182.631-.351.132-.121.352-.089.481-.234.006-.007.049,0,.058.016.026.041,0,.076-.029.105a2.952,2.952,0,0,0-.341.471c-.195.345-.4.68-.567,1.043" transform="translate(0 -1.14)" fill="#252d44" fill-rule="evenodd"/>
        <path id="Caminho_4265" data-name="Caminho 4265" d="M217.64,20.79c.162-.917.318-1.835.481-2.752q.28-1.574.569-3.145c.019-.1,0-.144-.117-.138a4.172,4.172,0,0,0-.979.154,2.532,2.532,0,0,0-1.644,1.607,5.649,5.649,0,0,0-.31,1.183c-.065.386-.148.769-.205,1.154-.084.563-.2,1.119-.283,1.681s-.2,1.116-.291,1.675c-.015.088-.047.107-.129.107q-2.888,0-5.776,0c-.11,0-.122-.044-.106-.129q.076-.423.152-.846.146-.822.29-1.644c.107-.609.212-1.218.32-1.826.131-.742.26-1.483.4-2.224a5.8,5.8,0,0,1,.167-.849c-.1-.075-.2-.025-.3-.029-.129.015-.258.028-.387.047a2.529,2.529,0,0,0-1.978,1.462,5.95,5.95,0,0,0-.457,1.68c-.128.744-.252,1.489-.383,2.233-.107.607-.226,1.212-.333,1.818s-.205,1.24-.315,1.859c-.13.731-.272,1.46-.4,2.192s-.248,1.477-.377,2.215c-.143.815-.292,1.629-.44,2.451a7.339,7.339,0,0,0,1.053-.059,1.836,1.836,0,0,0,1.516-1.081,7.255,7.255,0,0,0,.522-1.957c.13-.736.253-1.473.383-2.21.143-.807.294-1.612.429-2.42.019-.112.057-.122.147-.122q2.871,0,5.743,0c.106,0,.142.028.122.135-.084.459-.163.919-.244,1.378q-.147.829-.3,1.657c-.089.494-.18.987-.266,1.481-.08.46-.172.919-.246,1.38-.09.56-.2,1.118-.289,1.678-.025.153.024.142.126.144a5.213,5.213,0,0,0,.992-.076,1.819,1.819,0,0,0,1.011-.492,2.81,2.81,0,0,0,.7-1.393c.227-.9.346-1.817.513-2.726.17-.927.32-1.858.482-2.786.144-.823.3-1.644.441-2.467" transform="translate(-166.04 -11.962)" fill="#252d44" fill-rule="evenodd"/>
        <path id="Caminho_4266" data-name="Caminho 4266" d="M581.248,25.487l-.026.16a13.715,13.715,0,0,1-.285,1.47,5.741,5.741,0,0,1-1.229,2.267,4.924,4.924,0,0,1-1.538,1.181,3.676,3.676,0,0,1-1.581.438c-.093.032-.19,0-.284.022q-1.508,0-3.015.01c-.119,0-.091-.068-.08-.132q.166-.929.333-1.857t.332-1.858c.118-.669.233-1.338.35-2.007.075-.425.153-.849.228-1.274.01-.058.009-.107.095-.1a4.275,4.275,0,0,1,1.578.171,2.237,2.237,0,0,1,.913.656,2.538,2.538,0,0,1,.527,1.493c.017.313.018.312.339.309a.383.383,0,0,1,.051,0c.083.011.107-.038.119-.107q.2-1.178.41-2.355c.12-.679.244-1.357.365-2.036.083-.464.165-.928.244-1.393.008-.047.039-.124-.057-.127-.125,0-.25,0-.375,0-.056,0-.059.042-.07.093a3,3,0,0,1-.33.853,3.818,3.818,0,0,1-1.205,1.343,3.654,3.654,0,0,1-2.478.513c.021-.143.038-.283.062-.421.145-.813.292-1.625.436-2.439.106-.6.2-1.208.311-1.811.119-.668.252-1.334.36-2,.024-.152.073-.18.211-.179,1.266,0,2.534,0,3.8.005a5.4,5.4,0,0,1,1.331.139,1.283,1.283,0,0,1,.979,1.319.57.57,0,0,1,0,.268,6.71,6.71,0,0,1-.142,1.116c-.058.4-.134.793-.2,1.189a3.355,3.355,0,0,0,.572.016.07.07,0,0,0,.072-.06c.044-.419.136-.83.207-1.244.1-.564.2-1.126.3-1.689q.09-.529.161-1.062a.433.433,0,0,0-.281-.482,2.134,2.134,0,0,0-.282-.051c-.06-.022-.127,0-.187-.023-.04,0-.079.008-.118.008h-7.915c-.039,0-.079-.005-.118-.008-.058.027-.122,0-.181.02-.022,0-.044.008-.066.01a.553.553,0,0,0-.6.467,14.506,14.506,0,0,0-.312,1.565c-.09.482-.158.969-.254,1.45s-.18.94-.259,1.41c-.094.565-.2,1.128-.289,1.694-.083.537-.2,1.07-.292,1.606-.109.618-.209,1.237-.316,1.855s-.221,1.234-.33,1.852c-.085.478-.166.956-.251,1.433-.074.421-.151.842-.227,1.263-.068.379-.136.759-.205,1.144.039,0,.084.006.128.006h7.753a2,2,0,0,0,.436-.054,3.139,3.139,0,0,0,1.746-1.084,2.577,2.577,0,0,0,.6-1.227c.057-.332.125-.661.184-.993.1-.547.192-1.1.29-1.644.065-.365.135-.729.2-1.093a1.71,1.71,0,0,0-.643,0" transform="translate(-462.573 -12.812)" fill="#252d44" fill-rule="evenodd"/>
        <path id="Caminho_4267" data-name="Caminho 4267" d="M351.806,17.444a2.741,2.741,0,0,1,.008,1.1c-.1.609-.209,1.216-.316,1.824,0,.025.016.047.039.047a3.817,3.817,0,0,0,.617-.014c.01-.049.022-.1.031-.148.113-.635.228-1.269.336-1.9.1-.614.238-1.224.3-1.844.034-.357-.066-.57-.46-.639a3.6,3.6,0,0,0-.605-.051q-3.679,0-7.358,0c-.068,0-.136-.005-.2-.008-.058.027-.122,0-.181.02a.753.753,0,0,0-.489.176,1.378,1.378,0,0,0-.285.753c-.107.546-.2,1.095-.3,1.643q-.124.682-.245,1.365c-.09.51-.177,1.021-.267,1.531-.067.384-.146.766-.209,1.149s-.129.76-.189,1.141c-.084.538-.195,1.071-.289,1.607-.129.736-.251,1.474-.382,2.21-.108.612-.228,1.223-.336,1.835-.137.778-.268,1.558-.4,2.341a4.361,4.361,0,0,0,1.012-.067,2.014,2.014,0,0,0,1.622-1.23,6.8,6.8,0,0,0,.419-1.623c.1-.61.214-1.217.321-1.826q.145-.822.291-1.644c.076-.425.156-.85.228-1.277.014-.083.037-.115.125-.114a5.09,5.09,0,0,1,1.388.1,2.113,2.113,0,0,1,.971.594,2.328,2.328,0,0,1,.535,1,3.146,3.146,0,0,1,.079.945h.2c.27,0,.277,0,.328-.267.126-.673.247-1.347.367-2.021q.2-1.116.394-2.234c.086-.492.17-.984.255-1.477a1.7,1.7,0,0,0-.383-.017c-.051,0-.1-.005-.126.056a3.522,3.522,0,0,1-4.017,2.745q.2-1.145.4-2.291c.139-.8.275-1.594.416-2.391.119-.673.25-1.345.36-2.02.022-.133.069-.153.183-.153,1.016,0,2.033,0,3.049,0a8.908,8.908,0,0,1,1.532.071,1.314,1.314,0,0,1,1.234,1.006" transform="translate(-276.153 -12.812)" fill="#252d44" fill-rule="evenodd"/>
        <path id="Caminho_4268" data-name="Caminho 4268" d="M525.227,17.355q.228-1.267.453-2.534c-.042-.094-.116-.039-.179-.04a.54.54,0,0,0-.325.147,1.347,1.347,0,0,0-.264.685c-.13.705-.264,1.41-.39,2.116-.1.549-.185,1.1-.28,1.649q-.168.972-.341,1.943-.2,1.163-.41,2.325c-.136.772-.258,1.547-.412,2.315a22.862,22.862,0,0,1-.539,2.634,2.15,2.15,0,0,1-.841,1.15,2.727,2.727,0,0,1-1.475.41c-.567.018-1.135.013-1.7.015a4.866,4.866,0,0,1-.761-.041,1.641,1.641,0,0,1-1.361-1.574,8.124,8.124,0,0,1,.216-1.723c.128-.809.289-1.613.432-2.42.164-.929.32-1.859.483-2.788.144-.818.292-1.635.439-2.453.1-.558.2-1.115.3-1.674s.183-1.1.28-1.645c.062-.353.134-.705.2-1.058a.858.858,0,0,0-.372-.014,4.947,4.947,0,0,0-.819.119,2.059,2.059,0,0,0-1.508,1.351,6,6,0,0,0-.334,1.252c-.1.619-.219,1.235-.328,1.852-.1.543-.187,1.087-.284,1.629s-.2,1.08-.3,1.622c-.109.619-.208,1.239-.317,1.859s-.219,1.223-.33,1.834c-.1.564-.207,1.127-.306,1.692a2.773,2.773,0,0,0-.034,1.123,2.019,2.019,0,0,0,.655,1.148,1.958,1.958,0,0,0,1.308.475q2.377,0,4.754,0a2.853,2.853,0,0,0,.926-.137,2.482,2.482,0,0,0,1.522-1.319,5.725,5.725,0,0,0,.4-1.49c.162-.928.317-1.857.481-2.785.143-.811.3-1.621.439-2.433.163-.928.318-1.858.482-2.785.143-.812.293-1.622.439-2.433" transform="translate(-416.541 -11.972)" fill="#252d44" fill-rule="evenodd"/>
        <path id="Caminho_4269" data-name="Caminho 4269" d="M460.909,30.011c-.053-.253-.074-.513-.109-.77-.083-.6-.164-1.2-.249-1.792s-.176-1.19-.261-1.786c-.077-.539-.15-1.079-.227-1.619-.094-.664-.19-1.328-.284-1.992-.084-.6-.164-1.193-.248-1.789-.087-.623-.178-1.245-.266-1.868-.083-.585-.164-1.17-.248-1.755s-.181-1.19-.256-1.786c-.017-.134-.053-.171-.182-.162a2.327,2.327,0,0,0-2.063,1.35c-.793,1.6-1.576,3.2-2.366,4.806q-1,2.034-2.016,4.066c-.6,1.211-1.193,2.425-1.8,3.632-.274.545-.518,1.105-.83,1.631a.748.748,0,0,1-.631.46c-.007,0-.014.022-.021.035h.823a.742.742,0,0,0,.453-.384c.048-.083.1-.167.138-.254.767-1.56,1.569-3.1,2.31-4.676.362-.768.767-1.516,1.144-2.278q1.309-2.643,2.609-5.289c.136-.276.274-.551.411-.827.126.893.22,1.776.321,2.658.129,1.132.263,2.264.394,3.4q.143,1.233.285,2.466c.122,1.052.256,2.1.365,3.156a2.041,2.041,0,0,0,1.414,1.893c.193.068.4.09.593.139h1.392c-.407-.041-.528-.334-.6-.66" transform="translate(-363.905 -11.91)" fill="#252d44" fill-rule="evenodd"/>
        <path id="Caminho_4270" data-name="Caminho 4270" d="M643.3,17.672a2.072,2.072,0,0,0-.513-1.2,2.031,2.031,0,0,0-1.549-.661q-3.458,0-6.916,0c-.073,0-.147-.006-.22-.009-.069.032-.145,0-.214.024a.617.617,0,0,0-.651.547c-.108.426-.179.861-.257,1.294-.1.548-.188,1.1-.286,1.647s-.2,1.07-.295,1.607c-.088.5-.166,1-.254,1.5-.094.536-.2,1.071-.292,1.607-.109.618-.209,1.237-.317,1.855s-.221,1.222-.329,1.833c-.085.483-.166.967-.251,1.45-.074.421-.151.842-.227,1.263l-.206,1.144a4.332,4.332,0,0,0,.855-.037,2.207,2.207,0,0,0,1.354-.624,2.663,2.663,0,0,0,.608-1.22c.174-.662.266-1.341.382-2.015.141-.819.292-1.636.438-2.454.085-.473.168-.945.26-1.456.136.2.212.393.315.57.427.736.813,1.494,1.223,2.239q.918,1.669,1.817,3.348a4.051,4.051,0,0,0,.917,1.263,1.511,1.511,0,0,0,.938.375c.886.021,1.772.013,2.658.016.021,0,.046,0,.041-.044a1.274,1.274,0,0,1-1.058-.821c-.065-.13-.138-.255-.209-.382l-1.723-3.081q-.706-1.261-1.413-2.522c-.187-.336-.371-.674-.562-1.022.826,0,1.632-.008,2.437,0a2.564,2.564,0,0,0,1.217-.28,3.034,3.034,0,0,0,1.733-2.247c.085-.475.177-.948.26-1.423.1-.57.195-1.141.292-1.711a1.633,1.633,0,0,0,0-.373m-2.663,1.53c-.125.674-.211,1.355-.38,2.02a2.619,2.619,0,0,1-.656,1.267,2.3,2.3,0,0,1-1.428.6c-.628.072-1.259.032-1.77.045-.659,0-1.2,0-1.738,0-.1,0-.135-.007-.114-.129q.578-3.246,1.143-6.495c.019-.109.062-.143.175-.142.994.007,1.988,0,2.982.013a3.372,3.372,0,0,1,1.055.159,1.217,1.217,0,0,1,.87,1.122,5.434,5.434,0,0,1-.138,1.534" transform="translate(-511.188 -12.81)" fill="#252d44" fill-rule="evenodd"/>
        <path id="Caminho_4271" data-name="Caminho 4271" d="M408.153,29.516a10.246,10.246,0,0,0,.3-1.48c.152-.8.293-1.611.433-2.417a2.2,2.2,0,0,0-.251-1.516,1.976,1.976,0,0,0-1.16-.886c.049-.041.095-.082.144-.118a2.977,2.977,0,0,0,1.214-1.95c.166-.986.348-1.968.513-2.954a2.01,2.01,0,0,0-2.022-2.38q-3.161,0-6.322,0c-.068,0-.136-.005-.2-.008-.058.027-.122,0-.182.021l-.152.015a.685.685,0,0,0-.632.562c-.043.182-.076.365-.11.549-.106.581-.236,1.158-.324,1.742-.081.54-.184,1.075-.274,1.613-.1.625-.232,1.245-.342,1.869s-.2,1.242-.313,1.862-.227,1.214-.334,1.822-.207,1.242-.316,1.862-.222,1.237-.332,1.856c-.106.6-.207,1.2-.315,1.794-.037.205-.044.2.156.2,2.63,0,5.259,0,7.889,0a2.935,2.935,0,0,0,1.606-.434,3.07,3.07,0,0,0,1.325-1.629m-1.91-2.97c-.148.814-.268,1.632-.444,2.44a3.257,3.257,0,0,1-.377,1,2.121,2.121,0,0,1-1.716.986c-.685.076-1.372.03-1.93.044-.708,0-1.288,0-1.867,0-.12,0-.147-.017-.124-.149q.627-3.514,1.238-7.029c.018-.105.058-.136.164-.135,1.107.005,2.214,0,3.322.008a3.677,3.677,0,0,1,.842.1,1.261,1.261,0,0,1,1.05,1.3,6.209,6.209,0,0,1-.16,1.433m.6-8.3c-.065.638-.2,1.264-.311,1.9a9.68,9.68,0,0,1-.315,1.424,2.114,2.114,0,0,1-1.926,1.528,27.165,27.165,0,0,1-2.74.059c-.4.005-.4,0-.328-.393q.453-2.56.9-5.122c.065-.368.138-.735.195-1.1.016-.1.055-.127.151-.126.437,0,.875,0,1.4,0a11.526,11.526,0,0,1,1.748.071,1.3,1.3,0,0,1,1.161.857,2.212,2.212,0,0,1,.065.911" transform="translate(-321.991 -12.813)" fill="#252d44" fill-rule="evenodd"/>
        <path id="Caminho_4272" data-name="Caminho 4272" d="M287.241,19.818q.152-.872.308-1.742a1.939,1.939,0,0,0,0-.407,2,2,0,0,0-2.063-1.827c-2.124-.008-4.248,0-6.372,0a2.273,2.273,0,0,0-.454.046,3.031,3.031,0,0,0-1.807,1.106,2.843,2.843,0,0,0-.589,1.2c-.079.376-.136.758-.206,1.136-.1.541-.2,1.082-.3,1.623-.088.5-.167,1-.255,1.5-.082.465-.173.93-.257,1.4-.091.509-.177,1.018-.268,1.527-.081.455-.165.908-.245,1.363-.09.51-.183,1.02-.262,1.532a10.554,10.554,0,0,0-.184,1.226,2,2,0,0,0,.453,1.385,1.949,1.949,0,0,0,1.581.728c2.067,0,4.135-.01,6.2,0a2.991,2.991,0,0,0,1.619-.425,2.907,2.907,0,0,0,1.414-1.887c.189-.871.327-1.753.483-2.631.13-.735.252-1.472.382-2.207.143-.812.293-1.624.436-2.436.13-.736.255-1.472.384-2.208M284.8,19.54q-.379,2.168-.765,4.334-.4,2.276-.8,4.552a6.675,6.675,0,0,1-.282,1.118,2.113,2.113,0,0,1-1.879,1.45,12.587,12.587,0,0,1-1.558.06,7.059,7.059,0,0,1-1.629-.126,1.282,1.282,0,0,1-1.045-1.34,9.145,9.145,0,0,1,.221-1.734c.252-1.451.511-2.9.767-4.351s.511-2.9.766-4.352a6.636,6.636,0,0,1,.356-1.4,2.019,2.019,0,0,1,1.649-1.282,13.96,13.96,0,0,1,2.243-.075,5.383,5.383,0,0,1,.932.069,1.318,1.318,0,0,1,1.239,1.456,8.854,8.854,0,0,1-.213,1.615" transform="translate(-222.375 -12.84)" fill="#252d44" fill-rule="evenodd"/>
        <path id="Caminho_4273" data-name="Caminho 4273" d="M203,106.237c-.1,0-.153.014-.167.128-.022.179-.068.356-.1.534-.01.069-.031.1-.1.095-.176-.005-.352-.009-.527,0-.111.006-.107-.051-.093-.124.021-.116.046-.231.065-.347.047-.287.046-.281-.245-.288-.116,0-.175.031-.191.147-.058.426-.154.845-.227,1.269-.022.127-.1.265-.016.4a1.378,1.378,0,0,0,.407-.009,6.858,6.858,0,0,1,.146-.749,2.811,2.811,0,0,1,.7,0c-.018.156-.06.31-.077.464-.01.093-.1.193-.017.293a.973.973,0,0,0,.438-.02c.061-.495.174-.981.257-1.472.063-.374.1-.312-.252-.322" transform="translate(-163.25 -86.129)" fill="#252d44" fill-rule="evenodd"/>
        <path id="Caminho_4274" data-name="Caminho 4274" d="M240.5,106.236c-.295,0-.59.007-.884,0-.119,0-.145.063-.157.146-.061.426-.156.846-.229,1.27-.022.127-.1.265-.017.4a1.367,1.367,0,0,0,.407-.009c.026-.16.046-.322.08-.48.056-.263.06-.262.336-.269a.927.927,0,0,1,.17,0c.187.03.235-.072.23-.23-.091-.053-.2,0-.289-.036-.33.026-.331.026-.289-.287a.877.877,0,0,0,.024-.131c0-.1.056-.1.131-.1.159,0,.317-.007.476-.006.141,0,.12-.122.133-.2s-.07-.065-.123-.066" transform="translate(-193.911 -86.127)" fill="#252d44" fill-rule="evenodd"/>
        <path id="Caminho_4275" data-name="Caminho 4275" d="M221.855,106.244a1.155,1.155,0,0,0-1.413.516,1.757,1.757,0,0,0-.11.389c-.058.48.085.8.544.864A1.107,1.107,0,0,0,222.23,107a.932.932,0,0,0,0-.27.62.62,0,0,0-.375-.488m-.244,1.3c-.087.192-.271.176-.394.189-.328,0-.434-.1-.429-.391a2.42,2.42,0,0,1,.121-.632c.073-.251.35-.274.587-.247.181.021.279.163.273.39a1.762,1.762,0,0,1-.158.691" transform="translate(-178.623 -86.076)" fill="#252d44" fill-rule="evenodd"/>
        <path id="Caminho_4276" data-name="Caminho 4276" d="M289.858,106.2c-.06,0-.089.017-.1.082-.052.307-.107.613-.167.918-.082.419-.094.584-.58.568-.16-.005-.227-.1-.2-.258.062-.337.128-.674.184-1.013s.075-.285-.255-.3c-.115,0-.16.026-.179.153-.044.286-.09.572-.16.854a.884.884,0,0,0-.017.5c.1.3.354.331.62.326.057,0,.114,0,.17,0a.887.887,0,0,0,.84-.675c.059-.275.1-.553.145-.831.055-.358.053-.356-.3-.33" transform="translate(-233.782 -86.092)" fill="#252d44" fill-rule="evenodd"/>
        <path id="Caminho_4277" data-name="Caminho 4277" d="M307.823,106.236c-.284,0-.568.006-.852,0-.118,0-.148.059-.16.144-.061.427-.156.847-.228,1.271-.022.128-.1.266-.017.4a9.3,9.3,0,0,0,1.122-.011.678.678,0,0,0,.033-.232c-.148-.054-.305.008-.454-.034-.265.02-.265.02-.205-.23,0-.011.007-.021.009-.033.055-.278.055-.278.333-.256.1-.039.216.014.318-.032.059-.231.059-.231-.191-.233h-.017c-.382-.006-.376,0-.282-.387.023-.094.063-.1.136-.1.147,0,.3-.011.442-.005s.13-.112.144-.186c.019-.1-.076-.075-.132-.075" transform="translate(-248.515 -86.126)" fill="#252d44" fill-rule="evenodd"/>
        <path id="Caminho_4278" data-name="Caminho 4278" d="M255.818,106.47c-.028-.161-.174-.258-.443-.3l-.067-.008a.878.878,0,0,0-.271,0,.144.144,0,0,1-.033.008c-.361.015-.363.015-.43.36-.084.425-.164.852-.247,1.278-.025.129.027.2.157.2a5.7,5.7,0,0,0,.626-.014.655.655,0,0,0,.6-.4.413.413,0,0,0-.2-.581.521.521,0,0,0,.31-.542m-.852,1.272c-.045,0-.09,0-.16,0,.028-.152.059-.288.076-.427.013-.108.034-.182.172-.158s.243.067.247.226a.316.316,0,0,1-.335.359m.088-.842c-.074.012-.1-.018-.08-.1a1.408,1.408,0,0,0,.048-.249c.006-.107.044-.157.156-.135s.2.059.186.194a.268.268,0,0,1-.31.284" transform="translate(-206.188 -86.064)" fill="#252d44" fill-rule="evenodd"/>
        <path id="Caminho_4279" data-name="Caminho 4279" d="M323.528,107.785c-.256-.041-.28-.28-.383-.449-.053-.086-.036-.146.065-.212a.616.616,0,0,0,.3-.652c-.041-.228-.247-.266-.436-.308a2.729,2.729,0,0,0-.51,0c-.106.019-.245-.032-.268.148-.053.428-.154.847-.226,1.271-.021.128-.1.266-.017.4a1.366,1.366,0,0,0,.407-.009c.034-.2.069-.408.1-.612.005-.031.018-.062.046-.064s.05.032.064.065c.054.134.1.271.171.4a.515.515,0,0,0,.654.217c.07-.029.044-.082.071-.119a.051.051,0,0,0-.039-.077m-.894-.769c.031-.162.064-.311.086-.462.013-.086.022-.159.139-.137.1.019.187.037.195.168.016.265-.116.41-.42.43" transform="translate(-261.071 -86.063)" fill="#252d44" fill-rule="evenodd"/>
        <path id="Caminho_4280" data-name="Caminho 4280" d="M271.112,106.207a.3.3,0,0,0-.048-.137.708.708,0,0,0-.451.1q-.479.8-.955,1.6c-.027.046-.073.1,0,.144a.591.591,0,0,0,.27-.013,3.358,3.358,0,0,1,.314-.542c.143-.043.292,0,.436-.026.127-.032.178.044.2.149.029.139.051.279.075.419a1.079,1.079,0,0,0,.442,0,.184.184,0,0,0,.024-.11c-.1-.527-.2-1.055-.3-1.583m-.382.876h-.354l.33-.582c.036.2.062.355.1.512.016.074-.024.07-.072.07" transform="translate(-218.591 -85.985)" fill="#252d44" fill-rule="evenodd"/>
        <path id="Caminho_4281" data-name="Caminho 4281" d="M351.769,106.244c-.391,0-.782,0-1.173,0-.245,0-.245,0-.257.269.136,0,.272.008.406,0,.1-.008.112.054.1.121-.046.265-.1.528-.146.793a2.7,2.7,0,0,0-.092.618.872.872,0,0,0,.439,0q.127-.719.254-1.438a.1.1,0,0,1,.125-.1c.112.007.226,0,.339-.005s.119-.1.132-.181c.017-.1-.071-.079-.127-.079" transform="translate(-284.034 -86.135)" fill="#252d44" fill-rule="evenodd"/>
        <path id="Caminho_4282" data-name="Caminho 4282" d="M367.469,107.785c-.256-.041-.281-.279-.384-.448-.052-.085-.037-.146.065-.212a.616.616,0,0,0,.3-.652c-.042-.228-.247-.266-.436-.308a2.734,2.734,0,0,0-.51,0c-.106.017-.245-.031-.267.148-.054.427-.153.847-.226,1.271-.022.127-.1.266-.017.4a1.365,1.365,0,0,0,.407-.009c.034-.2.069-.408.1-.612.005-.031.019-.062.046-.064s.051.032.064.066c.043.115.083.232.135.342a.516.516,0,0,0,.672.277c.079-.026.064-.08.088-.122a.052.052,0,0,0-.039-.078m-.893-.777c.03-.155.061-.309.087-.464.012-.068.009-.142.112-.127s.2.015.216.145a.368.368,0,0,1-.415.446" transform="translate(-296.695 -86.063)" fill="#252d44" fill-rule="evenodd"/>
        <path id="Caminho_4283" data-name="Caminho 4283" d="M401.732,106.168c-.086.007-.209-.072-.23.124-.031.294-.108.584-.166.876-.005.029.024.069-.024.084s-.062-.021-.083-.045l-.89-1.041a.279.279,0,0,0-.235.011c-.01.058-.02.116-.031.174-.078.415-.151.83-.231,1.245-.023.118-.105.254-.013.384.09,0,.183.039.267-.023.059-.368.118-.736.18-1.117.154.175.3.332.432.491.166.195.33.389.488.59a.239.239,0,0,0,.247.068c.091-.01.079-.092.086-.157,0-.039.011-.078.018-.116.085-.464.173-.928.252-1.393.009-.051.071-.166-.069-.155" transform="translate(-324.124 -86.057)" fill="#252d44" fill-rule="evenodd"/>
        <path id="Caminho_4284" data-name="Caminho 4284" d="M382.961,106.231a.416.416,0,0,0-.048-.156.711.711,0,0,0-.454.092c-.321.539-.639,1.079-.962,1.617-.03.05-.052.087,0,.129a.593.593,0,0,0,.27-.013,3.351,3.351,0,0,1,.314-.542c.143-.043.292,0,.435-.026.114-.028.185-.012.2.132a3.989,3.989,0,0,0,.079.435,1.079,1.079,0,0,0,.442,0,.183.183,0,0,0,.019-.125c-.1-.515-.2-1.031-.3-1.547m-.733.846.323-.574.106.574Z" transform="translate(-309.272 -85.988)" fill="#252d44" fill-rule="evenodd"/>
        <path id="Caminho_4285" data-name="Caminho 4285" d="M419.6,106.179c-.1-.013-.192-.016-.287-.021a.859.859,0,0,0-.773.308.477.477,0,0,0,.029.6c.116.136.287.151.427.231.083.047.216.048.185.188a.249.249,0,0,1-.264.225,1.026,1.026,0,0,1-.391-.085c-.2-.083-.286-.034-.324.177a.1.1,0,0,0,.068.128,1.081,1.081,0,0,0,1.007-.076.575.575,0,0,0,.319-.57c-.032-.243-.2-.343-.412-.413a1.452,1.452,0,0,1-.242-.11.133.133,0,0,1-.067-.159c.018-.065.028-.139.125-.126a.556.556,0,0,1,.266,0,.433.433,0,0,1,.149.021c.189.1.23-.029.282-.164.04-.1,0-.142-.1-.155" transform="translate(-339.048 -86.064)" fill="#252d44" fill-rule="evenodd"/>
        <path id="Caminho_4286" data-name="Caminho 4286" d="M452.024,106.117c-.058-.028-.124,0-.181-.026-.034,0-.068,0-.1.009a1.134,1.134,0,0,0-.707.248,1.285,1.285,0,0,0-.36.976.616.616,0,0,0,.549.629,1.12,1.12,0,0,0,1.356-1.015.934.934,0,0,0,0-.271.66.66,0,0,0-.554-.55m-.067,1.365c-.088.192-.274.171-.41.185-.308,0-.415-.1-.412-.379a1.9,1.9,0,0,1,.132-.663.5.5,0,0,1,.58-.23.334.334,0,0,1,.269.379,1.729,1.729,0,0,1-.16.707" transform="translate(-365.381 -86.013)" fill="#252d44" fill-rule="evenodd"/>
        <path id="Caminho_4287" data-name="Caminho 4287" d="M503.4,106.237c-.29,0-.579.007-.868,0-.119,0-.146.062-.158.146-.06.427-.157.846-.229,1.27-.022.128-.1.266-.017.4a9.33,9.33,0,0,0,1.122-.011.688.688,0,0,0,.034-.232c-.148-.054-.305.008-.454-.034-.265.02-.265.02-.205-.23,0-.011.007-.022.009-.033.055-.278.055-.278.333-.256.1-.039.216.014.318-.032.06-.23.06-.23-.191-.233h-.017c-.382-.006-.376,0-.282-.386.023-.092.059-.1.134-.1.153,0,.306-.011.459-.005s.109-.123.128-.19c.024-.083-.064-.071-.117-.071" transform="translate(-407.07 -86.128)" fill="#252d44" fill-rule="evenodd"/>
        <path id="Caminho_4288" data-name="Caminho 4288" d="M488.089,106.239c-.187,0-.374,0-.561,0-.238,0-.476.008-.714,0-.166-.007-.145.122-.155.206-.014.114.087.047.134.054a1.809,1.809,0,0,0,.288.01c.076,0,.1.029.088.1-.052.27-.105.54-.151.811a2.7,2.7,0,0,0-.092.618.868.868,0,0,0,.439,0l.254-1.438a.1.1,0,0,1,.125-.1c.113.007.226,0,.339-.005s.12-.1.132-.18c.017-.1-.071-.079-.127-.079" transform="translate(-394.554 -86.13)" fill="#252d44" fill-rule="evenodd"/>
        <path id="Caminho_4289" data-name="Caminho 4289" d="M471.015,107.785c-.256-.041-.28-.28-.384-.448-.052-.086-.036-.146.065-.212a.617.617,0,0,0,.3-.652c-.041-.228-.247-.266-.436-.308a2.732,2.732,0,0,0-.51,0c-.105.018-.247-.032-.267.146-.048.43-.164.848-.228,1.275-.019.128-.1.265-.016.4a1.374,1.374,0,0,0,.407-.009c.034-.2.069-.408.1-.613,0-.031.019-.062.046-.064s.051.032.063.066c.043.115.082.232.135.342a.516.516,0,0,0,.672.277c.079-.026.064-.08.088-.122a.052.052,0,0,0-.039-.078m-.895-.765c.032-.169.064-.323.09-.477.011-.071.013-.141.114-.125s.2.017.214.148c.037.259-.106.425-.418.455" transform="translate(-380.645 -86.063)" fill="#252d44" fill-rule="evenodd"/>
        <path id="Caminho_4290" data-name="Caminho 4290" d="M530.1,107.836a.7.7,0,0,1-.332-.217.96.96,0,0,0,.326-.565c.008-.059.028-.162-.077-.145-.136.022-.342-.031-.323.228a.257.257,0,0,1-.029.107c-.026.052-.025.135-.093.146s-.076-.071-.111-.112-.064-.093-.1-.133c-.072-.074-.039-.109.037-.147a.687.687,0,0,0,.331-.3.274.274,0,0,0-.189-.431c-.409-.112-.875.047-.786.647.008.053.044.1-.045.147a.653.653,0,0,0-.379.489.474.474,0,0,0,.166.426.8.8,0,0,0,.808-.033.173.173,0,0,1,.205.02.657.657,0,0,0,.6.071.128.128,0,0,0,.1-.126c0-.08-.061-.059-.107-.073m-.884-.128c-.032.061-.125.053-.193.064-.1-.009-.194-.039-.222-.149a.33.33,0,0,1,.095-.307c.036-.042.055,0,.074.024.052.073.107.144.155.22.032.051.117.1.09.148m-.011-.877c-.083.017-.058-.087-.058-.137,0-.118.047-.21.179-.221.084-.007.075.064.081.11a.253.253,0,0,1-.2.248" transform="translate(-428.337 -86.128)" fill="#252d44" fill-rule="evenodd"/>
        <path id="Caminho_4291" data-name="Caminho 4291" d="M593.805,106.186c-.1-.012-.193-.016-.287-.02a1.228,1.228,0,0,0-1.032.358,1.271,1.271,0,0,0-.279.942.511.511,0,0,0,.383.514,1.936,1.936,0,0,0,1.069-.1c.049-.015.065-.05.073-.1a5.113,5.113,0,0,1,.1-.544c.042-.15-.025-.163-.142-.16-.187,0-.375.007-.562,0-.1,0-.134.031-.15.127-.021.13.077.092.136.112s.123-.007.181.02c.016,0,.045,0,.046.007a.317.317,0,0,1-.331.406c-.028,0-.057,0-.085,0-.166.017-.24-.084-.254-.225a1.725,1.725,0,0,1,.139-.856.271.271,0,0,1,.29-.185,1.968,1.968,0,0,1,.466.023c.226.06.253.041.326-.161.033-.093.015-.146-.09-.16" transform="translate(-480.127 -86.072)" fill="#252d44" fill-rule="evenodd"/>
        <path id="Caminho_4292" data-name="Caminho 4292" d="M558.546,107.778c-.113.006-.228-.007-.34,0-.132.013-.152-.044-.13-.155.07-.362.139-.725.2-1.088.054-.313.05-.306-.275-.309-.118,0-.146.063-.157.146-.06.427-.156.846-.229,1.27-.022.128-.1.266-.017.4.345.018.691,0,1.036.008a.044.044,0,0,0,.049-.035.2.2,0,0,1,0-.067c.076-.16-.008-.183-.143-.176" transform="translate(-452.038 -86.125)" fill="#252d44" fill-rule="evenodd"/>
        <path id="Caminho_4293" data-name="Caminho 4293" d="M574.489,106.117c-.058-.028-.124,0-.181-.026-.034,0-.068,0-.1.009a1.161,1.161,0,0,0-.7.239,1.207,1.207,0,0,0-.367.987.557.557,0,0,0,.547.621,1.106,1.106,0,0,0,1.354-1.009.941.941,0,0,0,0-.27.659.659,0,0,0-.554-.55m.093.733a2.178,2.178,0,0,1-.082.416c-.1.339-.18.4-.526.4-.266,0-.372-.1-.374-.368a2.352,2.352,0,0,1,.108-.617c.074-.28.317-.316.612-.281.188.023.286.2.262.449" transform="translate(-464.67 -86.013)" fill="#252d44" fill-rule="evenodd"/>
        <path id="Caminho_4294" data-name="Caminho 4294" d="M622.764,106.163c-.055,0-.111-.02-.167-.02a.876.876,0,0,0-.743.3.488.488,0,0,0,.012.6,1.765,1.765,0,0,0,.458.238c.075.039.193.057.166.176s-.094.234-.257.235a1,1,0,0,1-.406-.088c-.189-.08-.27-.034-.317.171a.106.106,0,0,0,.072.141,1.1,1.1,0,0,0,.981-.067.587.587,0,0,0,.338-.581c-.029-.243-.2-.343-.411-.413a1.443,1.443,0,0,1-.243-.11.133.133,0,0,1-.067-.16c.018-.065.028-.139.125-.126a.555.555,0,0,1,.267,0,1.1,1.1,0,0,1,.24.044c.078.033.1.018.131-.058.121-.273.12-.279-.18-.291" transform="translate(-503.881 -86.055)" fill="#252d44" fill-rule="evenodd"/>
        <path id="Caminho_4295" data-name="Caminho 4295" d="M639.717,106.239c-.187,0-.374,0-.561,0-.238,0-.476.008-.714,0-.166-.007-.145.122-.155.207-.014.113.088.047.134.053a1.766,1.766,0,0,0,.288.01c.077,0,.1.029.088.1-.052.27-.1.54-.15.811a2.662,2.662,0,0,0-.092.618.868.868,0,0,0,.439,0q.127-.719.254-1.438a.1.1,0,0,1,.125-.1c.112.007.226,0,.339-.005s.119-.1.132-.18c.017-.1-.071-.079-.127-.079" transform="translate(-517.485 -86.13)" fill="#252d44" fill-rule="evenodd"/>
        <path id="Caminho_4296" data-name="Caminho 4296" d="M610.438,106.233c-.116,0-.176.032-.191.147-.057.427-.154.846-.227,1.269-.022.127-.1.266-.017.4a1.374,1.374,0,0,0,.407-.009c.091-.507.184-1.013.272-1.52.05-.287.047-.281-.244-.289" transform="translate(-494.525 -86.128)" fill="#252d44" fill-rule="evenodd"/>
        <path id="Caminho_4297" data-name="Caminho 4297" d="M612.01,102.69a1.858,1.858,0,0,1-.356.33c-.028.016-.075.046-.033.094s.086.091.126.133c.044-.026.079-.044.111-.066.119-.083.238-.167.356-.252.058-.042.168-.067.068-.171-.075-.079-.14-.192-.272-.068" transform="translate(-495.854 -83.211)" fill="#252d44" fill-rule="evenodd"/>
        <path id="Caminho_4298" data-name="Caminho 4298" d="M668.075,106.194a2.944,2.944,0,0,0-.623,0,1.074,1.074,0,0,0-.78.537,1.3,1.3,0,0,0-.13.836.455.455,0,0,0,.274.391,1.523,1.523,0,0,0,1.06-.048.145.145,0,0,0,.074-.173c-.017-.082-.093-.043-.142-.033a2.093,2.093,0,0,1-.5.057.284.284,0,0,1-.3-.273,1.7,1.7,0,0,1,.14-.807.273.273,0,0,1,.29-.186.452.452,0,0,1,.234,0c.119-.02.229.042.346.041.153,0,.142-.144.179-.23s-.055-.1-.119-.107" transform="translate(-540.382 -86.079)" fill="#252d44" fill-rule="evenodd"/>
        <path id="Caminho_4299" data-name="Caminho 4299" d="M654.377,106.235c-.117,0-.174.032-.189.149-.055.426-.16.843-.228,1.267-.02.128-.1.266-.017.4a1.372,1.372,0,0,0,.407-.009c.091-.507.184-1.014.273-1.522.049-.285.046-.28-.246-.287" transform="translate(-530.149 -86.129)" fill="#252d44" fill-rule="evenodd"/>
        <path id="Caminho_4300" data-name="Caminho 4300" d="M683.662,106.183a.233.233,0,0,0-.045-.118.72.72,0,0,0-.448.106q-.476.787-.948,1.577c-.026.044-.09.1-.009.159a.6.6,0,0,0,.27-.013,3.315,3.315,0,0,1,.314-.542c.143-.043.291,0,.436-.026.116-.032.175.012.193.131.022.146.054.291.081.436a.681.681,0,0,0,.476-.03q-.052-.271-.1-.543c-.072-.379-.144-.758-.217-1.138m-.376.9h-.351l.327-.583c.036.2.062.357.1.515.016.075-.027.069-.073.069" transform="translate(-553.067 -85.982)" fill="#252d44" fill-rule="evenodd"/>
        <path id="Caminho_4301" data-name="Caminho 4301" d="M435.236,106.17a.081.081,0,0,1-.016-.005.911.911,0,0,0-.236,0,2.119,2.119,0,0,1-.3.011c-.132-.013-.149.058-.166.162-.068.407-.151.812-.217,1.22-.023.141-.107.283-.029.432a1.367,1.367,0,0,0,.407-.009c.033-.181.076-.36.1-.543.01-.1.038-.119.131-.119a.921.921,0,0,0,.574-.186.649.649,0,0,0,.253-.662c-.069-.245-.284-.273-.494-.3m-.3.918c-.075.017-.107,0-.09-.079.034-.166.069-.332.094-.5.011-.076.047-.1.1-.089.177,0,.262.092.239.258a.43.43,0,0,1-.346.408" transform="translate(-352.054 -86.066)" fill="#252d44" fill-rule="evenodd"/>
      </g>
    </g>
  </g>
</svg>
