<svg id="Logo" xmlns="http://www.w3.org/2000/svg" width="86.914" height="22.931" viewBox="0 0 86.914 22.931">
  <path id="Caminho_1" data-name="Caminho 1" d="M28.908,21.175l-2.854-6.968-.032.076,2.86,6.892Z" transform="translate(-14.726 -8.039)" fill="#ffbd00"/>
  <path id="Caminho_2" data-name="Caminho 2" d="M19.517,23.387h.037l2.153-5.344Z" transform="translate(-11.045 -10.21)" fill="#ffbd00"/>
  <path id="Caminho_3" data-name="Caminho 3" d="M9.208.493,0,22.839H4.818l1.965-4.974L4.818,22.839h0l3.653-9.286,2.19-5.518.629-1.612.005.015.032-.079,2.854,7.194h-.026l3.733,9.286h4.889L13.568.493Z" transform="translate(0 -0.278)" fill="#ffbd00"/>
  <path id="Caminho_4" data-name="Caminho 4" d="M49,5.351h6.538V23.041h4.727V5.351H66.8V.849H49Z" transform="translate(-27.729 -0.479)" fill="#ffbd00"/>
  <path id="Caminho_5" data-name="Caminho 5" d="M110.355,13.553c0,3.516-1.751,5.322-4.634,5.322s-4.636-1.869-4.636-5.481V.846H96.357V13.521c0,6.53,3.531,9.853,9.3,9.853s9.423-3.3,9.423-10.013V.844h-4.726Z" transform="translate(-54.531 -0.476)" fill="#ffbd00"/>
  <path id="Caminho_6" data-name="Caminho 6" d="M159.059,0a11.286,11.286,0,0,0-11.45,11.12c0,.115,0,.23,0,.346v.062a11.421,11.421,0,0,0,22.839.289c0-.117,0-.234,0-.351V11.4A11.18,11.18,0,0,0,159.059,0Zm6.447,11.527c0,3.8-2.641,6.907-6.447,6.907s-6.508-3.169-6.508-6.968V11.4c0-3.8,2.64-6.9,6.447-6.9s6.508,3.166,6.508,6.967Z" transform="translate(-83.535 0.003)" fill="#ffbd00"/>
</svg>
